<svg xmlns="http://www.w3.org/2000/svg" xmlns:xlink="http://www.w3.org/1999/xlink" width="1200" zoomAndPan="magnify" viewBox="0 0 900 899.99999" height="1200" preserveAspectRatio="xMidYMid meet" version="1.0"><defs><clipPath id="id1"><path d="M 203 238 L 575 238 L 575 662.390625 L 203 662.390625 Z M 203 238 " clip-rule="nonzero"/></clipPath><clipPath id="id2"><path d="M 443 238 L 872.835938 238 L 872.835938 662.390625 L 443 662.390625 Z M 443 238 " clip-rule="nonzero"/></clipPath><clipPath id="id3"><path d="M 96 237.890625 L 141 237.890625 L 141 283 L 96 283 Z M 96 237.890625 " clip-rule="nonzero"/></clipPath><clipPath id="id4"><path d="M 27 237.890625 L 72 237.890625 L 72 283 L 27 283 Z M 27 237.890625 " clip-rule="nonzero"/></clipPath><clipPath id="id5"><path d="M 96 618 L 141 618 L 141 662.390625 L 96 662.390625 Z M 96 618 " clip-rule="nonzero"/></clipPath><clipPath id="id6"><path d="M 96 617 L 141 617 L 141 662.390625 L 96 662.390625 Z M 96 617 " clip-rule="nonzero"/></clipPath><clipPath id="id7"><path d="M 27 618 L 72 618 L 72 662.390625 L 27 662.390625 Z M 27 618 " clip-rule="nonzero"/></clipPath><clipPath id="id8"><path d="M 27 617 L 72 617 L 72 662.390625 L 27 662.390625 Z M 27 617 " clip-rule="nonzero"/></clipPath></defs><g clip-path="url(#id1)"><path fill="#233dff" d="M 528.070312 403.921875 L 362.832031 238.511719 L 203.933594 238.511719 L 418.167969 450.257812 L 203.933594 662.007812 L 362.832031 662.007812 L 574.363281 450.257812 L 528.070312 403.921875 " fill-opacity="1" fill-rule="nonzero"/></g><g clip-path="url(#id2)"><path fill="#233dff" d="M 826.128906 403.921875 L 660.890625 238.511719 L 443.679688 238.511719 L 657.910156 450.257812 L 443.679688 662.007812 L 660.890625 662.007812 L 872.421875 450.257812 L 826.128906 403.921875 " fill-opacity="1" fill-rule="nonzero"/></g><path fill="#233dff" d="M 181.828125 404.324219 C 193.8125 404.265625 203.542969 394.433594 203.488281 382.4375 C 203.425781 370.441406 193.609375 360.703125 181.625 360.757812 C 169.640625 360.816406 159.910156 370.648438 159.972656 382.644531 C 160.027344 394.640625 169.84375 404.378906 181.828125 404.324219 " fill-opacity="1" fill-rule="evenodd"/><path fill="#233dff" d="M 181.726562 361.214844 C 169.882812 361.269531 160.375 370.882812 160.429688 382.644531 C 160.484375 394.34375 170.039062 403.859375 181.726562 403.859375 L 181.726562 404.324219 L 181.828125 403.859375 C 187.5 403.835938 192.835938 401.585938 196.851562 397.535156 C 200.859375 393.480469 203.054688 388.117188 203.03125 382.4375 C 202.96875 370.738281 193.414062 361.214844 181.726562 361.214844 Z M 181.726562 404.78125 C 169.53125 404.78125 159.566406 394.851562 159.507812 382.644531 C 159.453125 370.382812 169.371094 360.359375 181.625 360.296875 C 193.921875 360.296875 203.890625 370.230469 203.945312 382.433594 C 203.976562 388.359375 201.683594 393.953125 197.5 398.179688 C 193.320312 402.40625 187.753906 404.753906 181.835938 404.78125 L 181.726562 404.78125 " fill-opacity="1" fill-rule="nonzero"/><path fill="#233dff" d="M 182.433594 531 C 194.414062 530.945312 204.144531 521.117188 204.089844 509.121094 C 204.03125 497.125 194.210938 487.378906 182.226562 487.441406 C 170.238281 487.492188 160.515625 497.328125 160.570312 509.324219 C 160.628906 521.320312 170.449219 531.0625 182.433594 531 " fill-opacity="1" fill-rule="evenodd"/><path fill="#233dff" d="M 182.328125 487.898438 C 170.484375 487.953125 160.972656 497.566406 161.027344 509.324219 C 161.082031 521.019531 170.636719 530.542969 182.324219 530.542969 L 182.324219 531 L 182.433594 530.542969 C 194.175781 530.488281 203.679688 520.875 203.625 509.121094 C 203.570312 497.421875 194.019531 487.898438 182.328125 487.898438 Z M 182.324219 531.460938 C 170.136719 531.460938 160.164062 521.53125 160.109375 509.324219 C 160.050781 497.0625 169.972656 487.035156 182.226562 486.980469 C 194.523438 486.980469 204.488281 496.914062 204.546875 509.113281 C 204.601562 521.382812 194.679688 531.40625 182.433594 531.460938 L 182.324219 531.460938 " fill-opacity="1" fill-rule="nonzero"/><path fill="#233dff" d="M 250.863281 467.332031 C 262.851562 467.28125 272.574219 457.449219 272.519531 445.453125 C 272.464844 433.457031 262.640625 423.710938 250.65625 423.773438 C 238.671875 423.828125 228.945312 433.664062 228.996094 445.660156 C 229.058594 457.65625 238.878906 467.394531 250.863281 467.332031 " fill-opacity="1" fill-rule="evenodd"/><path fill="#233dff" d="M 250.765625 424.230469 C 238.914062 424.285156 229.402344 433.898438 229.457031 445.652344 C 229.515625 457.359375 239.070312 466.875 250.757812 466.875 L 250.757812 467.332031 L 250.863281 466.875 C 262.609375 466.820312 272.117188 457.207031 272.0625 445.453125 C 272.007812 433.753906 262.445312 424.230469 250.765625 424.230469 Z M 250.757812 467.792969 C 238.5625 467.792969 228.601562 457.867188 228.539062 445.660156 C 228.484375 433.398438 238.402344 423.375 250.65625 423.3125 C 262.953125 423.3125 272.917969 433.242188 272.976562 445.449219 C 273.039062 457.714844 263.117188 467.738281 250.867188 467.792969 L 250.757812 467.792969 " fill-opacity="1" fill-rule="nonzero"/><path fill="#233dff" d="M 182.128906 345.304688 C 194.113281 345.242188 203.84375 335.414062 203.789062 323.417969 C 203.730469 311.421875 193.910156 301.683594 181.925781 301.738281 C 169.941406 301.796875 160.210938 311.625 160.265625 323.621094 C 160.328125 335.617188 170.148438 345.359375 182.128906 345.304688 " fill-opacity="1" fill-rule="evenodd"/><path fill="#233dff" d="M 182.027344 302.195312 C 170.183594 302.253906 160.671875 311.863281 160.726562 323.621094 C 160.78125 335.324219 170.339844 344.839844 182.027344 344.84375 L 182.027344 345.304688 L 182.128906 344.84375 C 187.804688 344.816406 193.136719 342.570312 197.144531 338.515625 C 201.160156 334.460938 203.355469 329.097656 203.332031 323.417969 C 203.269531 311.71875 193.714844 302.195312 182.027344 302.195312 Z M 182.027344 345.761719 C 169.832031 345.761719 159.871094 335.828125 159.808594 323.628906 C 159.75 311.359375 169.671875 301.339844 181.925781 301.277344 C 194.222656 301.277344 204.1875 311.210938 204.246094 323.410156 C 204.277344 329.335938 201.988281 334.929688 197.804688 339.160156 C 193.613281 343.390625 188.050781 345.730469 182.128906 345.761719 L 182.027344 345.761719 " fill-opacity="1" fill-rule="nonzero"/><path fill="#233dff" d="M 118.511719 345.304688 C 130.496094 345.242188 140.222656 335.414062 140.167969 323.417969 C 140.109375 311.421875 130.289062 301.683594 118.304688 301.738281 C 106.324219 301.796875 96.59375 311.625 96.648438 323.621094 C 96.707031 335.617188 106.527344 345.359375 118.511719 345.304688 " fill-opacity="1" fill-rule="evenodd"/><path fill="#233dff" d="M 118.410156 302.195312 C 112.632812 302.226562 107.300781 304.46875 103.289062 308.523438 C 99.277344 312.578125 97.082031 317.945312 97.105469 323.621094 C 97.167969 335.324219 106.71875 344.839844 118.410156 344.84375 L 118.410156 345.304688 L 118.511719 344.84375 C 130.253906 344.785156 139.765625 335.179688 139.710938 323.417969 C 139.652344 311.71875 130.097656 302.195312 118.410156 302.195312 Z M 118.410156 345.761719 C 106.214844 345.761719 96.25 335.828125 96.191406 323.628906 C 96.160156 317.703125 98.449219 312.109375 102.632812 307.878906 C 106.824219 303.648438 112.386719 301.308594 118.304688 301.277344 C 130.601562 301.277344 140.574219 311.210938 140.628906 323.410156 C 140.683594 335.679688 130.765625 345.703125 118.511719 345.761719 L 118.410156 345.761719 " fill-opacity="1" fill-rule="nonzero"/><path fill="#233dff" d="M 118.511719 281.957031 C 130.496094 281.902344 140.222656 272.074219 140.167969 260.078125 C 140.109375 248.082031 130.289062 238.339844 118.304688 238.394531 C 106.324219 238.449219 96.59375 248.285156 96.648438 260.28125 C 96.707031 272.277344 106.527344 282.015625 118.511719 281.957031 " fill-opacity="1" fill-rule="evenodd"/><g clip-path="url(#id3)"><path fill="#233dff" d="M 118.410156 238.855469 C 112.632812 238.882812 107.300781 241.128906 103.289062 245.183594 C 99.277344 249.238281 97.082031 254.597656 97.105469 260.277344 C 97.167969 271.980469 106.71875 281.496094 118.410156 281.496094 L 118.410156 281.957031 L 118.511719 281.496094 C 130.253906 281.445312 139.765625 271.832031 139.710938 260.078125 C 139.652344 248.375 130.097656 238.855469 118.410156 238.855469 Z M 118.410156 282.421875 C 106.214844 282.421875 96.25 272.488281 96.191406 260.28125 C 96.160156 254.355469 98.449219 248.769531 102.632812 244.539062 C 106.824219 240.308594 112.386719 237.960938 118.304688 237.9375 C 130.601562 237.9375 140.574219 247.863281 140.628906 260.070312 C 140.683594 272.335938 130.765625 282.359375 118.511719 282.421875 L 118.410156 282.421875 " fill-opacity="1" fill-rule="nonzero"/></g><path fill="#233dff" d="M 49.851562 281.957031 C 61.835938 281.902344 71.566406 272.074219 71.511719 260.078125 C 71.449219 248.082031 61.632812 238.339844 49.648438 238.394531 C 37.664062 238.449219 27.933594 248.285156 27.988281 260.28125 C 28.050781 272.277344 37.871094 282.015625 49.851562 281.957031 " fill-opacity="1" fill-rule="evenodd"/><g clip-path="url(#id4)"><path fill="#233dff" d="M 49.75 238.855469 C 37.90625 238.910156 28.394531 248.519531 28.449219 260.277344 C 28.507812 271.980469 38.0625 281.496094 49.75 281.496094 L 49.75 281.957031 L 49.851562 281.496094 C 61.59375 281.445312 71.105469 271.832031 71.054688 260.078125 C 70.992188 248.375 61.4375 238.855469 49.75 238.855469 Z M 49.75 282.421875 C 37.554688 282.421875 27.585938 272.488281 27.53125 260.28125 C 27.472656 248.019531 37.394531 237.996094 49.648438 237.9375 C 61.945312 237.9375 71.910156 247.863281 71.96875 260.070312 C 72.023438 272.335938 62.109375 282.359375 49.851562 282.421875 L 49.75 282.421875 " fill-opacity="1" fill-rule="nonzero"/></g><path fill="#233dff" d="M 118.511719 555.101562 C 130.496094 555.160156 140.222656 564.992188 140.167969 576.988281 C 140.109375 588.984375 130.289062 598.722656 118.304688 598.667969 C 106.324219 598.609375 96.59375 588.777344 96.648438 576.78125 C 96.707031 564.785156 106.527344 555.046875 118.511719 555.101562 " fill-opacity="1" fill-rule="evenodd"/><path fill="#233dff" d="M 118.511719 555.558594 C 106.71875 555.558594 97.167969 565.082031 97.105469 576.78125 C 97.082031 582.464844 99.277344 587.824219 103.289062 591.878906 C 107.300781 595.929688 112.632812 598.179688 118.304688 598.203125 L 118.410156 598.667969 L 118.410156 598.203125 C 130.097656 598.203125 139.652344 588.6875 139.710938 576.988281 C 139.765625 565.226562 130.253906 555.621094 118.511719 555.558594 Z M 118.410156 599.128906 L 118.304688 599.128906 C 106.050781 599.066406 96.136719 589.042969 96.191406 576.78125 C 96.25 564.574219 106.214844 554.644531 118.410156 554.644531 C 130.765625 554.703125 140.683594 564.726562 140.628906 576.988281 C 140.574219 589.195312 130.601562 599.128906 118.410156 599.128906 " fill-opacity="1" fill-rule="nonzero"/><g clip-path="url(#id5)"><path fill="#233dff" d="M 118.511719 618.449219 C 130.496094 618.503906 140.222656 628.332031 140.167969 640.328125 C 140.109375 652.324219 130.289062 662.0625 118.304688 662.007812 C 106.324219 661.957031 96.59375 652.121094 96.648438 640.125 C 96.707031 628.128906 106.527344 618.386719 118.511719 618.449219 " fill-opacity="1" fill-rule="evenodd"/></g><g clip-path="url(#id6)"><path fill="#233dff" d="M 118.511719 618.90625 C 106.71875 618.90625 97.167969 628.421875 97.105469 640.125 C 97.082031 645.808594 99.277344 651.167969 103.289062 655.222656 C 107.300781 659.277344 112.632812 661.519531 118.304688 661.550781 L 118.410156 662.007812 L 118.410156 661.550781 C 130.097656 661.550781 139.652344 652.027344 139.710938 640.328125 C 139.765625 628.574219 130.253906 618.960938 118.511719 618.90625 Z M 118.410156 662.46875 L 118.304688 662.46875 C 112.386719 662.4375 106.824219 660.097656 102.632812 655.867188 C 98.449219 651.636719 96.160156 646.050781 96.191406 640.125 C 96.25 627.917969 106.214844 617.988281 118.410156 617.988281 C 130.765625 618.042969 140.683594 628.066406 140.628906 640.335938 C 140.574219 652.535156 130.601562 662.46875 118.410156 662.46875 " fill-opacity="1" fill-rule="nonzero"/></g><g clip-path="url(#id7)"><path fill="#233dff" d="M 49.851562 618.449219 C 61.835938 618.503906 71.566406 628.332031 71.511719 640.328125 C 71.449219 652.324219 61.632812 662.0625 49.648438 662.007812 C 37.664062 661.957031 27.933594 652.121094 27.988281 640.125 C 28.050781 628.128906 37.871094 618.386719 49.851562 618.449219 " fill-opacity="1" fill-rule="evenodd"/></g><g clip-path="url(#id8)"><path fill="#233dff" d="M 49.851562 618.90625 C 38.0625 618.90625 28.507812 628.421875 28.449219 640.125 C 28.421875 645.808594 30.617188 651.167969 34.632812 655.222656 C 38.640625 659.277344 43.976562 661.519531 49.648438 661.550781 L 49.75 662.007812 L 49.75 661.550781 C 61.4375 661.550781 70.992188 652.027344 71.054688 640.328125 C 71.105469 628.574219 61.59375 618.960938 49.851562 618.90625 Z M 49.75 662.46875 L 49.648438 662.46875 C 43.726562 662.4375 38.164062 660.097656 33.976562 655.867188 C 29.792969 651.636719 27.5 646.050781 27.53125 640.125 C 27.585938 627.917969 37.554688 617.988281 49.75 617.988281 C 62.109375 618.042969 72.023438 628.066406 71.96875 640.335938 C 71.910156 652.535156 61.945312 662.46875 49.75 662.46875 " fill-opacity="1" fill-rule="nonzero"/></g><path fill="#233dff" d="M 183.335938 598.667969 C 195.3125 598.609375 205.046875 588.777344 204.988281 576.78125 C 204.933594 564.785156 195.109375 555.046875 183.125 555.101562 C 171.140625 555.160156 161.414062 564.992188 161.472656 576.988281 C 161.527344 588.984375 171.347656 598.722656 183.335938 598.667969 " fill-opacity="1" fill-rule="evenodd"/><path fill="#233dff" d="M 183.234375 555.558594 C 171.382812 555.621094 161.875 565.226562 161.929688 576.988281 C 161.984375 588.6875 171.539062 598.203125 183.226562 598.203125 L 183.226562 598.667969 L 183.328125 598.203125 C 195.078125 598.148438 204.585938 588.542969 204.53125 576.78125 C 204.476562 565.082031 194.921875 555.558594 183.234375 555.558594 Z M 183.226562 599.128906 C 171.039062 599.128906 161.070312 589.195312 161.015625 576.988281 C 160.953125 564.726562 170.871094 554.703125 183.125 554.644531 C 195.421875 554.644531 205.390625 564.574219 205.445312 576.78125 C 205.507812 589.042969 195.585938 599.066406 183.335938 599.128906 L 183.226562 599.128906 " fill-opacity="1" fill-rule="nonzero"/><path fill="#233dff" d="M 252.65625 408.308594 C 264.640625 408.253906 274.371094 398.421875 274.316406 386.421875 C 274.257812 374.425781 264.4375 364.683594 252.453125 364.746094 C 240.46875 364.800781 230.738281 374.636719 230.792969 386.632812 C 230.855469 398.628906 240.675781 408.367188 252.65625 408.308594 " fill-opacity="1" fill-rule="evenodd"/><path fill="#233dff" d="M 252.554688 365.203125 C 240.710938 365.257812 231.199219 374.871094 231.257812 386.625 C 231.3125 398.332031 240.867188 407.847656 252.554688 407.847656 L 252.554688 408.308594 L 252.65625 407.847656 C 258.328125 407.824219 263.664062 405.574219 267.679688 401.519531 C 271.6875 397.464844 273.882812 392.105469 273.859375 386.425781 C 273.796875 374.726562 264.242188 365.203125 252.554688 365.203125 Z M 252.554688 408.765625 C 240.359375 408.765625 230.394531 398.839844 230.335938 386.632812 C 230.28125 374.371094 240.199219 364.339844 252.453125 364.289062 C 264.75 364.289062 274.714844 374.214844 274.773438 386.421875 C 274.796875 392.347656 272.515625 397.941406 268.332031 402.164062 C 264.148438 406.394531 258.582031 408.742188 252.664062 408.765625 L 252.554688 408.765625 " fill-opacity="1" fill-rule="nonzero"/><path fill="#233dff" d="M 253.261719 534.988281 C 265.242188 534.933594 274.972656 525.105469 274.914062 513.101562 C 274.859375 501.105469 265.039062 491.367188 253.054688 491.421875 C 241.070312 491.484375 231.34375 501.3125 231.398438 513.3125 C 231.453125 525.308594 241.277344 535.050781 253.261719 534.988281 " fill-opacity="1" fill-rule="evenodd"/><path fill="#233dff" d="M 253.15625 491.878906 C 241.3125 491.941406 231.800781 501.554688 231.855469 513.308594 C 231.910156 525.007812 241.46875 534.53125 253.15625 534.53125 L 253.15625 534.988281 L 253.261719 534.53125 C 265.003906 534.476562 274.515625 524.863281 274.453125 513.109375 C 274.402344 501.402344 264.847656 491.878906 253.15625 491.878906 Z M 253.15625 535.449219 C 240.964844 535.449219 230.992188 525.523438 230.9375 513.3125 C 230.878906 501.054688 240.800781 491.023438 253.050781 490.964844 C 265.347656 490.964844 275.316406 500.894531 275.371094 513.101562 C 275.429688 525.363281 265.515625 535.386719 253.261719 535.449219 L 253.15625 535.449219 " fill-opacity="1" fill-rule="nonzero"/><path fill="#233dff" d="M 314.527344 471.359375 C 326.511719 471.296875 336.242188 461.46875 336.1875 449.472656 C 336.125 437.476562 326.308594 427.738281 314.324219 427.792969 C 302.339844 427.851562 292.609375 437.679688 292.664062 449.675781 C 292.726562 461.671875 302.546875 471.414062 314.527344 471.359375 " fill-opacity="1" fill-rule="evenodd"/><path fill="#233dff" d="M 314.425781 428.25 C 302.582031 428.308594 293.070312 437.917969 293.125 449.675781 C 293.183594 461.378906 302.738281 470.898438 314.425781 470.898438 L 314.425781 471.359375 L 314.527344 470.898438 C 326.269531 470.839844 335.785156 461.234375 335.730469 449.472656 C 335.667969 437.773438 326.113281 428.25 314.425781 428.25 Z M 314.425781 471.816406 C 302.230469 471.816406 292.265625 461.882812 292.207031 449.683594 C 292.152344 437.414062 302.070312 427.394531 314.324219 427.332031 C 326.621094 427.332031 336.585938 437.265625 336.644531 449.472656 C 336.707031 461.734375 326.785156 471.757812 314.527344 471.816406 L 314.425781 471.816406 " fill-opacity="1" fill-rule="nonzero"/></svg>