<svg xmlns="http://www.w3.org/2000/svg" xmlns:xlink="http://www.w3.org/1999/xlink" width="1152" zoomAndPan="magnify" viewBox="0 0 864 422.99999" height="564" preserveAspectRatio="xMidYMid meet" version="1.0"><defs><g><g id="id1"/><g id="id2"/></g></defs><path fill="rgb(46.669006%, 51.368713%, 55.288696%)" d="M 91.867188 374.492188 L 36.558594 374.492188 L 36.558594 211.933594 L 91.867188 211.933594 L 91.867188 374.492188 " fill-opacity="1" fill-rule="nonzero"/><path fill="rgb(60.389709%, 65.489197%, 69.799805%)" d="M 35.644531 211.203125 L 92.78125 211.203125 L 92.78125 375.585938 L 35.644531 375.585938 L 35.644531 211.203125 M 90.953125 213.027344 L 37.472656 213.027344 L 37.472656 373.761719 L 90.953125 373.761719 L 90.953125 213.027344 " fill-opacity="1" fill-rule="nonzero"/><path fill="rgb(78.039551%, 81.568909%, 84.709167%)" d="M 97.894531 380.6875 L 42.589844 380.6875 L 42.589844 218.128906 L 97.894531 218.128906 L 97.894531 380.6875 " fill-opacity="1" fill-rule="nonzero"/><path fill="rgb(46.669006%, 51.368713%, 55.288696%)" d="M 178.957031 374.492188 L 123.648438 374.492188 L 123.648438 220.929688 L 178.957031 220.929688 L 178.957031 374.492188 " fill-opacity="1" fill-rule="nonzero"/><path fill="rgb(60.389709%, 65.489197%, 69.799805%)" d="M 122.738281 220.199219 L 179.871094 220.199219 L 179.871094 375.585938 L 122.738281 375.585938 L 122.738281 220.199219 M 178.042969 222.023438 L 124.5625 222.023438 L 124.5625 373.761719 L 178.042969 373.761719 L 178.042969 222.023438 " fill-opacity="1" fill-rule="nonzero"/><path fill="rgb(78.039551%, 81.568909%, 84.709167%)" d="M 184.988281 380.6875 L 129.679688 380.6875 L 129.679688 227.125 L 184.988281 227.125 L 184.988281 380.6875 " fill-opacity="1" fill-rule="nonzero"/><path fill="rgb(46.669006%, 51.368713%, 55.288696%)" d="M 267.105469 374.511719 L 211.800781 374.511719 L 211.800781 186.4375 L 267.105469 186.4375 L 267.105469 374.511719 " fill-opacity="1" fill-rule="nonzero"/><path fill="rgb(60.389709%, 65.489197%, 69.799805%)" d="M 210.886719 185.710938 L 268.019531 185.710938 L 268.019531 375.601562 L 210.886719 375.601562 L 210.886719 185.710938 M 266.191406 187.527344 L 212.714844 187.527344 L 212.714844 373.785156 L 266.191406 373.785156 L 266.191406 187.527344 " fill-opacity="1" fill-rule="nonzero"/><path fill="rgb(78.039551%, 81.568909%, 84.709167%)" d="M 273.136719 380.6875 L 217.832031 380.6875 L 217.832031 192.613281 L 273.136719 192.613281 L 273.136719 380.6875 " fill-opacity="1" fill-rule="nonzero"/><path fill="rgb(46.669006%, 51.368713%, 55.288696%)" d="M 354.199219 374.5 L 298.890625 374.5 L 298.890625 205.175781 L 354.199219 205.175781 L 354.199219 374.5 " fill-opacity="1" fill-rule="nonzero"/><path fill="rgb(60.389709%, 65.489197%, 69.799805%)" d="M 297.976562 204.449219 L 355.109375 204.449219 L 355.109375 375.589844 L 297.976562 375.589844 L 297.976562 204.449219 M 353.285156 206.269531 L 299.804688 206.269531 L 299.804688 373.773438 L 353.285156 373.773438 L 353.285156 206.269531 " fill-opacity="1" fill-rule="nonzero"/><path fill="rgb(78.039551%, 81.568909%, 84.709167%)" d="M 360.226562 380.683594 L 304.921875 380.683594 L 304.921875 211.363281 L 360.226562 211.363281 L 360.226562 380.683594 " fill-opacity="1" fill-rule="nonzero"/><path fill="rgb(46.669006%, 51.368713%, 55.288696%)" d="M 440.226562 374.5 L 384.921875 374.5 L 384.921875 156.441406 L 440.226562 156.441406 L 440.226562 374.5 " fill-opacity="1" fill-rule="nonzero"/><path fill="rgb(60.389709%, 65.489197%, 69.799805%)" d="M 384.007812 155.710938 L 441.140625 155.710938 L 441.140625 375.59375 L 384.007812 375.59375 L 384.007812 155.710938 M 439.3125 157.53125 L 385.835938 157.53125 L 385.835938 373.773438 L 439.3125 373.773438 L 439.3125 157.53125 " fill-opacity="1" fill-rule="nonzero"/><path fill="rgb(78.039551%, 81.568909%, 84.709167%)" d="M 446.257812 380.683594 L 390.953125 380.683594 L 390.953125 162.625 L 446.257812 162.625 L 446.257812 380.683594 " fill-opacity="1" fill-rule="nonzero"/><path fill="rgb(46.669006%, 51.368713%, 55.288696%)" d="M 527.320312 374.496094 L 472.011719 374.496094 L 472.011719 61.195312 L 527.320312 61.195312 L 527.320312 374.496094 " fill-opacity="1" fill-rule="nonzero"/><path fill="rgb(60.389709%, 65.489197%, 69.799805%)" d="M 471.097656 60.46875 L 528.230469 60.46875 L 528.230469 375.589844 L 471.097656 375.589844 L 471.097656 60.46875 M 526.40625 62.285156 L 472.925781 62.285156 L 472.925781 373.769531 L 526.40625 373.769531 L 526.40625 62.285156 " fill-opacity="1" fill-rule="nonzero"/><path fill="rgb(78.039551%, 81.568909%, 84.709167%)" d="M 533.347656 380.679688 L 478.042969 380.679688 L 478.042969 67.375 L 533.347656 67.375 L 533.347656 380.679688 " fill-opacity="1" fill-rule="nonzero"/><path fill="rgb(46.669006%, 51.368713%, 55.288696%)" d="M 618.648438 374.484375 L 563.34375 374.484375 L 563.34375 16.1875 L 618.648438 16.1875 L 618.648438 374.484375 " fill-opacity="1" fill-rule="nonzero"/><path fill="rgb(60.389709%, 65.489197%, 69.799805%)" d="M 562.429688 15.460938 L 619.5625 15.460938 L 619.5625 375.574219 L 562.429688 375.574219 L 562.429688 15.460938 M 617.734375 17.28125 L 564.257812 17.28125 L 564.257812 373.753906 L 617.734375 373.753906 L 617.734375 17.28125 " fill-opacity="1" fill-rule="nonzero"/><path fill="rgb(78.039551%, 81.568909%, 84.709167%)" d="M 624.679688 380.671875 L 569.375 380.671875 L 569.375 22.378906 L 624.679688 22.378906 L 624.679688 380.671875 " fill-opacity="1" fill-rule="nonzero"/><path fill="rgb(46.669006%, 51.368713%, 55.288696%)" d="M 707.859375 374.503906 L 652.554688 374.503906 L 652.554688 135.433594 L 707.859375 135.433594 L 707.859375 374.503906 " fill-opacity="1" fill-rule="nonzero"/><path fill="rgb(60.389709%, 65.489197%, 69.799805%)" d="M 651.640625 134.707031 L 708.773438 134.707031 L 708.773438 375.59375 L 651.640625 375.59375 L 651.640625 134.707031 M 706.945312 136.523438 L 653.46875 136.523438 L 653.46875 373.773438 L 706.945312 373.773438 L 706.945312 136.523438 " fill-opacity="1" fill-rule="nonzero"/><path fill="rgb(78.039551%, 81.568909%, 84.709167%)" d="M 713.890625 380.679688 L 658.585938 380.679688 L 658.585938 141.613281 L 713.890625 141.613281 L 713.890625 380.679688 " fill-opacity="1" fill-rule="nonzero"/><path fill="rgb(46.669006%, 51.368713%, 55.288696%)" d="M 797.070312 374.492188 L 741.765625 374.492188 L 741.765625 105.4375 L 797.070312 105.4375 L 797.070312 374.492188 " fill-opacity="1" fill-rule="nonzero"/><path fill="rgb(60.389709%, 65.489197%, 69.799805%)" d="M 740.851562 104.707031 L 797.984375 104.707031 L 797.984375 375.585938 L 740.851562 375.585938 L 740.851562 104.707031 M 796.15625 106.527344 L 742.679688 106.527344 L 742.679688 373.765625 L 796.15625 373.765625 L 796.15625 106.527344 " fill-opacity="1" fill-rule="nonzero"/><path fill="rgb(78.039551%, 81.568909%, 84.709167%)" d="M 803.101562 380.679688 L 747.796875 380.679688 L 747.796875 111.621094 L 803.101562 111.621094 L 803.101562 380.679688 " fill-opacity="1" fill-rule="nonzero"/><g fill="rgb(0%, 0%, 0%)" fill-opacity="1"><g transform="translate(35.939078, 402.05128)"><g><path d="M 6.09375 0 L 3.5 0 L 3.5 -5 C 3.5 -5.613281 3.507812 -6.171875 3.53125 -6.671875 C 3.375 -6.484375 3.175781 -6.28125 2.9375 -6.0625 L 1.875 -5.1875 L 0.546875 -6.8125 L 3.796875 -9.453125 L 6.09375 -9.453125 Z M 6.09375 0 "/></g></g><g transform="translate(43.704902, 402.05128)"><g><path d="M 7.296875 -4.71875 C 7.296875 -3.039062 7.015625 -1.8125 6.453125 -1.03125 C 5.890625 -0.257812 5.03125 0.125 3.875 0.125 C 2.75 0.125 1.898438 -0.28125 1.328125 -1.09375 C 0.753906 -1.90625 0.46875 -3.113281 0.46875 -4.71875 C 0.46875 -6.394531 0.742188 -7.625 1.296875 -8.40625 C 1.859375 -9.195312 2.71875 -9.59375 3.875 -9.59375 C 5.007812 -9.59375 5.863281 -9.179688 6.4375 -8.359375 C 7.007812 -7.546875 7.296875 -6.332031 7.296875 -4.71875 Z M 3.015625 -4.71875 C 3.015625 -3.644531 3.078125 -2.90625 3.203125 -2.5 C 3.335938 -2.101562 3.5625 -1.90625 3.875 -1.90625 C 4.195312 -1.90625 4.421875 -2.113281 4.546875 -2.53125 C 4.679688 -2.945312 4.75 -3.675781 4.75 -4.71875 C 4.75 -5.757812 4.679688 -6.488281 4.546875 -6.90625 C 4.421875 -7.332031 4.195312 -7.546875 3.875 -7.546875 C 3.5625 -7.546875 3.335938 -7.34375 3.203125 -6.9375 C 3.078125 -6.53125 3.015625 -5.789062 3.015625 -4.71875 Z M 3.015625 -4.71875 "/></g></g><g transform="translate(51.470726, 402.05128)"><g/></g><g transform="translate(54.913575, 402.05128)"><g><path d="M 5.140625 0 L 3.203125 -6.8125 L 3.15625 -6.8125 C 3.238281 -5.65625 3.28125 -4.753906 3.28125 -4.109375 L 3.28125 0 L 1.015625 0 L 1.015625 -9.453125 L 4.421875 -9.453125 L 6.40625 -2.75 L 6.453125 -2.75 L 8.390625 -9.453125 L 11.796875 -9.453125 L 11.796875 0 L 9.453125 0 L 9.453125 -4.140625 C 9.453125 -4.359375 9.453125 -4.597656 9.453125 -4.859375 C 9.460938 -5.128906 9.492188 -5.773438 9.546875 -6.796875 L 9.484375 -6.796875 L 7.578125 0 Z M 5.140625 0 "/></g></g><g transform="translate(67.727186, 402.05128)"><g><path d="M 5.65625 0 L 5.171875 -0.96875 L 5.125 -0.96875 C 4.78125 -0.550781 4.429688 -0.265625 4.078125 -0.109375 C 3.722656 0.046875 3.265625 0.125 2.703125 0.125 C 2.015625 0.125 1.472656 -0.078125 1.078125 -0.484375 C 0.679688 -0.898438 0.484375 -1.484375 0.484375 -2.234375 C 0.484375 -3.015625 0.753906 -3.597656 1.296875 -3.984375 C 1.835938 -4.367188 2.625 -4.582031 3.65625 -4.625 L 4.875 -4.671875 L 4.875 -4.765625 C 4.875 -5.367188 4.578125 -5.671875 3.984375 -5.671875 C 3.453125 -5.671875 2.773438 -5.488281 1.953125 -5.125 L 1.21875 -6.796875 C 2.070312 -7.234375 3.148438 -7.453125 4.453125 -7.453125 C 5.390625 -7.453125 6.113281 -7.21875 6.625 -6.75 C 7.144531 -6.289062 7.40625 -5.644531 7.40625 -4.8125 L 7.40625 0 Z M 3.78125 -1.65625 C 4.082031 -1.65625 4.34375 -1.75 4.5625 -1.9375 C 4.78125 -2.132812 4.890625 -2.390625 4.890625 -2.703125 L 4.890625 -3.28125 L 4.3125 -3.25 C 3.476562 -3.21875 3.0625 -2.910156 3.0625 -2.328125 C 3.0625 -1.878906 3.300781 -1.65625 3.78125 -1.65625 Z M 3.78125 -1.65625 "/></g></g><g transform="translate(75.984846, 402.05128)"><g><path d="M 5.296875 -7.453125 C 5.515625 -7.453125 5.722656 -7.4375 5.921875 -7.40625 L 6.0625 -7.375 L 5.84375 -5 C 5.632812 -5.050781 5.347656 -5.078125 4.984375 -5.078125 C 4.429688 -5.078125 4.03125 -4.945312 3.78125 -4.6875 C 3.53125 -4.4375 3.40625 -4.078125 3.40625 -3.609375 L 3.40625 0 L 0.875 0 L 0.875 -7.328125 L 2.75 -7.328125 L 3.15625 -6.15625 L 3.28125 -6.15625 C 3.488281 -6.539062 3.78125 -6.851562 4.15625 -7.09375 C 4.53125 -7.332031 4.910156 -7.453125 5.296875 -7.453125 Z M 5.296875 -7.453125 "/></g></g><g transform="translate(82.203977, 402.05128)"><g><path d="M 4.21875 0.125 C 3.007812 0.125 2.097656 -0.195312 1.484375 -0.84375 C 0.867188 -1.488281 0.5625 -2.414062 0.5625 -3.625 C 0.5625 -4.84375 0.894531 -5.785156 1.5625 -6.453125 C 2.226562 -7.117188 3.175781 -7.453125 4.40625 -7.453125 C 5.257812 -7.453125 6.0625 -7.269531 6.8125 -6.90625 L 6.0625 -5.03125 C 5.757812 -5.164062 5.476562 -5.269531 5.21875 -5.34375 C 4.957031 -5.425781 4.6875 -5.46875 4.40625 -5.46875 C 4 -5.46875 3.679688 -5.304688 3.453125 -4.984375 C 3.234375 -4.671875 3.125 -4.222656 3.125 -3.640625 C 3.125 -2.460938 3.554688 -1.875 4.421875 -1.875 C 5.160156 -1.875 5.875 -2.09375 6.5625 -2.53125 L 6.5625 -0.515625 C 5.90625 -0.0859375 5.125 0.125 4.21875 0.125 Z M 4.21875 0.125 "/></g></g><g transform="translate(89.348535, 402.05128)"><g><path d="M 5.484375 0 L 5.484375 -4 C 5.484375 -4.976562 5.191406 -5.46875 4.609375 -5.46875 C 4.191406 -5.46875 3.882812 -5.296875 3.6875 -4.953125 C 3.5 -4.609375 3.40625 -4.03125 3.40625 -3.21875 L 3.40625 0 L 0.875 0 L 0.875 -10.0625 L 3.40625 -10.0625 L 3.40625 -8.640625 C 3.40625 -7.992188 3.367188 -7.253906 3.296875 -6.421875 L 3.421875 -6.421875 C 3.660156 -6.804688 3.945312 -7.070312 4.28125 -7.21875 C 4.613281 -7.375 5 -7.453125 5.4375 -7.453125 C 6.25 -7.453125 6.882812 -7.21875 7.34375 -6.75 C 7.800781 -6.28125 8.03125 -5.617188 8.03125 -4.765625 L 8.03125 0 Z M 5.484375 0 "/></g></g></g><g fill="rgb(0%, 0%, 0%)" fill-opacity="1"><g transform="translate(123.029621, 402.05128)"><g><path d="M 6.09375 0 L 3.5 0 L 3.5 -5 C 3.5 -5.613281 3.507812 -6.171875 3.53125 -6.671875 C 3.375 -6.484375 3.175781 -6.28125 2.9375 -6.0625 L 1.875 -5.1875 L 0.546875 -6.8125 L 3.796875 -9.453125 L 6.09375 -9.453125 Z M 6.09375 0 "/></g></g><g transform="translate(130.795445, 402.05128)"><g><path d="M 6.09375 0 L 3.5 0 L 3.5 -5 C 3.5 -5.613281 3.507812 -6.171875 3.53125 -6.671875 C 3.375 -6.484375 3.175781 -6.28125 2.9375 -6.0625 L 1.875 -5.1875 L 0.546875 -6.8125 L 3.796875 -9.453125 L 6.09375 -9.453125 Z M 6.09375 0 "/></g></g><g transform="translate(138.561269, 402.05128)"><g/></g><g transform="translate(142.004118, 402.05128)"><g><path d="M 5.140625 0 L 3.203125 -6.8125 L 3.15625 -6.8125 C 3.238281 -5.65625 3.28125 -4.753906 3.28125 -4.109375 L 3.28125 0 L 1.015625 0 L 1.015625 -9.453125 L 4.421875 -9.453125 L 6.40625 -2.75 L 6.453125 -2.75 L 8.390625 -9.453125 L 11.796875 -9.453125 L 11.796875 0 L 9.453125 0 L 9.453125 -4.140625 C 9.453125 -4.359375 9.453125 -4.597656 9.453125 -4.859375 C 9.460938 -5.128906 9.492188 -5.773438 9.546875 -6.796875 L 9.484375 -6.796875 L 7.578125 0 Z M 5.140625 0 "/></g></g><g transform="translate(154.817729, 402.05128)"><g><path d="M 5.65625 0 L 5.171875 -0.96875 L 5.125 -0.96875 C 4.78125 -0.550781 4.429688 -0.265625 4.078125 -0.109375 C 3.722656 0.046875 3.265625 0.125 2.703125 0.125 C 2.015625 0.125 1.472656 -0.078125 1.078125 -0.484375 C 0.679688 -0.898438 0.484375 -1.484375 0.484375 -2.234375 C 0.484375 -3.015625 0.753906 -3.597656 1.296875 -3.984375 C 1.835938 -4.367188 2.625 -4.582031 3.65625 -4.625 L 4.875 -4.671875 L 4.875 -4.765625 C 4.875 -5.367188 4.578125 -5.671875 3.984375 -5.671875 C 3.453125 -5.671875 2.773438 -5.488281 1.953125 -5.125 L 1.21875 -6.796875 C 2.070312 -7.234375 3.148438 -7.453125 4.453125 -7.453125 C 5.390625 -7.453125 6.113281 -7.21875 6.625 -6.75 C 7.144531 -6.289062 7.40625 -5.644531 7.40625 -4.8125 L 7.40625 0 Z M 3.78125 -1.65625 C 4.082031 -1.65625 4.34375 -1.75 4.5625 -1.9375 C 4.78125 -2.132812 4.890625 -2.390625 4.890625 -2.703125 L 4.890625 -3.28125 L 4.3125 -3.25 C 3.476562 -3.21875 3.0625 -2.910156 3.0625 -2.328125 C 3.0625 -1.878906 3.300781 -1.65625 3.78125 -1.65625 Z M 3.78125 -1.65625 "/></g></g><g transform="translate(163.075389, 402.05128)"><g><path d="M 5.296875 -7.453125 C 5.515625 -7.453125 5.722656 -7.4375 5.921875 -7.40625 L 6.0625 -7.375 L 5.84375 -5 C 5.632812 -5.050781 5.347656 -5.078125 4.984375 -5.078125 C 4.429688 -5.078125 4.03125 -4.945312 3.78125 -4.6875 C 3.53125 -4.4375 3.40625 -4.078125 3.40625 -3.609375 L 3.40625 0 L 0.875 0 L 0.875 -7.328125 L 2.75 -7.328125 L 3.15625 -6.15625 L 3.28125 -6.15625 C 3.488281 -6.539062 3.78125 -6.851562 4.15625 -7.09375 C 4.53125 -7.332031 4.910156 -7.453125 5.296875 -7.453125 Z M 5.296875 -7.453125 "/></g></g><g transform="translate(169.29452, 402.05128)"><g><path d="M 4.21875 0.125 C 3.007812 0.125 2.097656 -0.195312 1.484375 -0.84375 C 0.867188 -1.488281 0.5625 -2.414062 0.5625 -3.625 C 0.5625 -4.84375 0.894531 -5.785156 1.5625 -6.453125 C 2.226562 -7.117188 3.175781 -7.453125 4.40625 -7.453125 C 5.257812 -7.453125 6.0625 -7.269531 6.8125 -6.90625 L 6.0625 -5.03125 C 5.757812 -5.164062 5.476562 -5.269531 5.21875 -5.34375 C 4.957031 -5.425781 4.6875 -5.46875 4.40625 -5.46875 C 4 -5.46875 3.679688 -5.304688 3.453125 -4.984375 C 3.234375 -4.671875 3.125 -4.222656 3.125 -3.640625 C 3.125 -2.460938 3.554688 -1.875 4.421875 -1.875 C 5.160156 -1.875 5.875 -2.09375 6.5625 -2.53125 L 6.5625 -0.515625 C 5.90625 -0.0859375 5.125 0.125 4.21875 0.125 Z M 4.21875 0.125 "/></g></g><g transform="translate(176.439078, 402.05128)"><g><path d="M 5.484375 0 L 5.484375 -4 C 5.484375 -4.976562 5.191406 -5.46875 4.609375 -5.46875 C 4.191406 -5.46875 3.882812 -5.296875 3.6875 -4.953125 C 3.5 -4.609375 3.40625 -4.03125 3.40625 -3.21875 L 3.40625 0 L 0.875 0 L 0.875 -10.0625 L 3.40625 -10.0625 L 3.40625 -8.640625 C 3.40625 -7.992188 3.367188 -7.253906 3.296875 -6.421875 L 3.421875 -6.421875 C 3.660156 -6.804688 3.945312 -7.070312 4.28125 -7.21875 C 4.613281 -7.375 5 -7.453125 5.4375 -7.453125 C 6.25 -7.453125 6.882812 -7.21875 7.34375 -6.75 C 7.800781 -6.28125 8.03125 -5.617188 8.03125 -4.765625 L 8.03125 0 Z M 5.484375 0 "/></g></g></g><g fill="rgb(0%, 0%, 0%)" fill-opacity="1"><g transform="translate(210.856036, 402.05128)"><g><path d="M 6.09375 0 L 3.5 0 L 3.5 -5 C 3.5 -5.613281 3.507812 -6.171875 3.53125 -6.671875 C 3.375 -6.484375 3.175781 -6.28125 2.9375 -6.0625 L 1.875 -5.1875 L 0.546875 -6.8125 L 3.796875 -9.453125 L 6.09375 -9.453125 Z M 6.09375 0 "/></g></g><g transform="translate(218.62186, 402.05128)"><g><path d="M 7.265625 0 L 0.390625 0 L 0.390625 -1.6875 L 2.703125 -4.015625 C 3.359375 -4.703125 3.785156 -5.171875 3.984375 -5.421875 C 4.191406 -5.679688 4.335938 -5.898438 4.421875 -6.078125 C 4.503906 -6.265625 4.546875 -6.457031 4.546875 -6.65625 C 4.546875 -6.894531 4.460938 -7.085938 4.296875 -7.234375 C 4.140625 -7.378906 3.914062 -7.453125 3.625 -7.453125 C 3.332031 -7.453125 3.03125 -7.363281 2.71875 -7.1875 C 2.414062 -7.019531 2.070312 -6.769531 1.6875 -6.4375 L 0.296875 -8.078125 C 0.773438 -8.515625 1.179688 -8.828125 1.515625 -9.015625 C 1.847656 -9.203125 2.207031 -9.34375 2.59375 -9.4375 C 2.988281 -9.539062 3.429688 -9.59375 3.921875 -9.59375 C 4.535156 -9.59375 5.082031 -9.484375 5.5625 -9.265625 C 6.039062 -9.054688 6.410156 -8.75 6.671875 -8.34375 C 6.941406 -7.945312 7.078125 -7.5 7.078125 -7 C 7.078125 -6.632812 7.03125 -6.289062 6.9375 -5.96875 C 6.84375 -5.65625 6.695312 -5.347656 6.5 -5.046875 C 6.3125 -4.742188 6.054688 -4.421875 5.734375 -4.078125 C 5.410156 -3.742188 4.726562 -3.109375 3.6875 -2.171875 L 3.6875 -2.109375 L 7.265625 -2.109375 Z M 7.265625 0 "/></g></g><g transform="translate(226.387685, 402.05128)"><g/></g><g transform="translate(229.830533, 402.05128)"><g><path d="M 5.140625 0 L 3.203125 -6.8125 L 3.15625 -6.8125 C 3.238281 -5.65625 3.28125 -4.753906 3.28125 -4.109375 L 3.28125 0 L 1.015625 0 L 1.015625 -9.453125 L 4.421875 -9.453125 L 6.40625 -2.75 L 6.453125 -2.75 L 8.390625 -9.453125 L 11.796875 -9.453125 L 11.796875 0 L 9.453125 0 L 9.453125 -4.140625 C 9.453125 -4.359375 9.453125 -4.597656 9.453125 -4.859375 C 9.460938 -5.128906 9.492188 -5.773438 9.546875 -6.796875 L 9.484375 -6.796875 L 7.578125 0 Z M 5.140625 0 "/></g></g><g transform="translate(242.644144, 402.05128)"><g><path d="M 5.65625 0 L 5.171875 -0.96875 L 5.125 -0.96875 C 4.78125 -0.550781 4.429688 -0.265625 4.078125 -0.109375 C 3.722656 0.046875 3.265625 0.125 2.703125 0.125 C 2.015625 0.125 1.472656 -0.078125 1.078125 -0.484375 C 0.679688 -0.898438 0.484375 -1.484375 0.484375 -2.234375 C 0.484375 -3.015625 0.753906 -3.597656 1.296875 -3.984375 C 1.835938 -4.367188 2.625 -4.582031 3.65625 -4.625 L 4.875 -4.671875 L 4.875 -4.765625 C 4.875 -5.367188 4.578125 -5.671875 3.984375 -5.671875 C 3.453125 -5.671875 2.773438 -5.488281 1.953125 -5.125 L 1.21875 -6.796875 C 2.070312 -7.234375 3.148438 -7.453125 4.453125 -7.453125 C 5.390625 -7.453125 6.113281 -7.21875 6.625 -6.75 C 7.144531 -6.289062 7.40625 -5.644531 7.40625 -4.8125 L 7.40625 0 Z M 3.78125 -1.65625 C 4.082031 -1.65625 4.34375 -1.75 4.5625 -1.9375 C 4.78125 -2.132812 4.890625 -2.390625 4.890625 -2.703125 L 4.890625 -3.28125 L 4.3125 -3.25 C 3.476562 -3.21875 3.0625 -2.910156 3.0625 -2.328125 C 3.0625 -1.878906 3.300781 -1.65625 3.78125 -1.65625 Z M 3.78125 -1.65625 "/></g></g><g transform="translate(250.901804, 402.05128)"><g><path d="M 5.296875 -7.453125 C 5.515625 -7.453125 5.722656 -7.4375 5.921875 -7.40625 L 6.0625 -7.375 L 5.84375 -5 C 5.632812 -5.050781 5.347656 -5.078125 4.984375 -5.078125 C 4.429688 -5.078125 4.03125 -4.945312 3.78125 -4.6875 C 3.53125 -4.4375 3.40625 -4.078125 3.40625 -3.609375 L 3.40625 0 L 0.875 0 L 0.875 -7.328125 L 2.75 -7.328125 L 3.15625 -6.15625 L 3.28125 -6.15625 C 3.488281 -6.539062 3.78125 -6.851562 4.15625 -7.09375 C 4.53125 -7.332031 4.910156 -7.453125 5.296875 -7.453125 Z M 5.296875 -7.453125 "/></g></g><g transform="translate(257.120935, 402.05128)"><g><path d="M 4.21875 0.125 C 3.007812 0.125 2.097656 -0.195312 1.484375 -0.84375 C 0.867188 -1.488281 0.5625 -2.414062 0.5625 -3.625 C 0.5625 -4.84375 0.894531 -5.785156 1.5625 -6.453125 C 2.226562 -7.117188 3.175781 -7.453125 4.40625 -7.453125 C 5.257812 -7.453125 6.0625 -7.269531 6.8125 -6.90625 L 6.0625 -5.03125 C 5.757812 -5.164062 5.476562 -5.269531 5.21875 -5.34375 C 4.957031 -5.425781 4.6875 -5.46875 4.40625 -5.46875 C 4 -5.46875 3.679688 -5.304688 3.453125 -4.984375 C 3.234375 -4.671875 3.125 -4.222656 3.125 -3.640625 C 3.125 -2.460938 3.554688 -1.875 4.421875 -1.875 C 5.160156 -1.875 5.875 -2.09375 6.5625 -2.53125 L 6.5625 -0.515625 C 5.90625 -0.0859375 5.125 0.125 4.21875 0.125 Z M 4.21875 0.125 "/></g></g><g transform="translate(264.265493, 402.05128)"><g><path d="M 5.484375 0 L 5.484375 -4 C 5.484375 -4.976562 5.191406 -5.46875 4.609375 -5.46875 C 4.191406 -5.46875 3.882812 -5.296875 3.6875 -4.953125 C 3.5 -4.609375 3.40625 -4.03125 3.40625 -3.21875 L 3.40625 0 L 0.875 0 L 0.875 -10.0625 L 3.40625 -10.0625 L 3.40625 -8.640625 C 3.40625 -7.992188 3.367188 -7.253906 3.296875 -6.421875 L 3.421875 -6.421875 C 3.660156 -6.804688 3.945312 -7.070312 4.28125 -7.21875 C 4.613281 -7.375 5 -7.453125 5.4375 -7.453125 C 6.25 -7.453125 6.882812 -7.21875 7.34375 -6.75 C 7.800781 -6.28125 8.03125 -5.617188 8.03125 -4.765625 L 8.03125 0 Z M 5.484375 0 "/></g></g></g><g fill="rgb(0%, 0%, 0%)" fill-opacity="1"><g transform="translate(297.946572, 402.05128)"><g><path d="M 6.09375 0 L 3.5 0 L 3.5 -5 C 3.5 -5.613281 3.507812 -6.171875 3.53125 -6.671875 C 3.375 -6.484375 3.175781 -6.28125 2.9375 -6.0625 L 1.875 -5.1875 L 0.546875 -6.8125 L 3.796875 -9.453125 L 6.09375 -9.453125 Z M 6.09375 0 "/></g></g><g transform="translate(305.712397, 402.05128)"><g><path d="M 6.9375 -7.40625 C 6.9375 -6.820312 6.757812 -6.316406 6.40625 -5.890625 C 6.050781 -5.472656 5.535156 -5.171875 4.859375 -4.984375 L 4.859375 -4.9375 C 6.429688 -4.738281 7.21875 -3.992188 7.21875 -2.703125 C 7.21875 -1.828125 6.867188 -1.132812 6.171875 -0.625 C 5.472656 -0.125 4.507812 0.125 3.28125 0.125 C 2.769531 0.125 2.296875 0.0859375 1.859375 0.015625 C 1.421875 -0.0546875 0.953125 -0.1875 0.453125 -0.375 L 0.453125 -2.5 C 0.867188 -2.289062 1.289062 -2.132812 1.71875 -2.03125 C 2.144531 -1.925781 2.539062 -1.875 2.90625 -1.875 C 3.46875 -1.875 3.875 -1.953125 4.125 -2.109375 C 4.382812 -2.273438 4.515625 -2.523438 4.515625 -2.859375 C 4.515625 -3.117188 4.445312 -3.316406 4.3125 -3.453125 C 4.175781 -3.597656 3.957031 -3.703125 3.65625 -3.765625 C 3.363281 -3.835938 2.976562 -3.875 2.5 -3.875 L 1.921875 -3.875 L 1.921875 -5.796875 L 2.515625 -5.796875 C 3.816406 -5.796875 4.46875 -6.128906 4.46875 -6.796875 C 4.46875 -7.046875 4.367188 -7.226562 4.171875 -7.34375 C 3.984375 -7.46875 3.726562 -7.53125 3.40625 -7.53125 C 2.800781 -7.53125 2.175781 -7.328125 1.53125 -6.921875 L 0.46875 -8.640625 C 0.96875 -8.984375 1.476562 -9.226562 2 -9.375 C 2.519531 -9.519531 3.117188 -9.59375 3.796875 -9.59375 C 4.773438 -9.59375 5.539062 -9.398438 6.09375 -9.015625 C 6.65625 -8.628906 6.9375 -8.09375 6.9375 -7.40625 Z M 6.9375 -7.40625 "/></g></g><g transform="translate(313.478221, 402.05128)"><g/></g><g transform="translate(316.92107, 402.05128)"><g><path d="M 5.140625 0 L 3.203125 -6.8125 L 3.15625 -6.8125 C 3.238281 -5.65625 3.28125 -4.753906 3.28125 -4.109375 L 3.28125 0 L 1.015625 0 L 1.015625 -9.453125 L 4.421875 -9.453125 L 6.40625 -2.75 L 6.453125 -2.75 L 8.390625 -9.453125 L 11.796875 -9.453125 L 11.796875 0 L 9.453125 0 L 9.453125 -4.140625 C 9.453125 -4.359375 9.453125 -4.597656 9.453125 -4.859375 C 9.460938 -5.128906 9.492188 -5.773438 9.546875 -6.796875 L 9.484375 -6.796875 L 7.578125 0 Z M 5.140625 0 "/></g></g><g transform="translate(329.73468, 402.05128)"><g><path d="M 5.65625 0 L 5.171875 -0.96875 L 5.125 -0.96875 C 4.78125 -0.550781 4.429688 -0.265625 4.078125 -0.109375 C 3.722656 0.046875 3.265625 0.125 2.703125 0.125 C 2.015625 0.125 1.472656 -0.078125 1.078125 -0.484375 C 0.679688 -0.898438 0.484375 -1.484375 0.484375 -2.234375 C 0.484375 -3.015625 0.753906 -3.597656 1.296875 -3.984375 C 1.835938 -4.367188 2.625 -4.582031 3.65625 -4.625 L 4.875 -4.671875 L 4.875 -4.765625 C 4.875 -5.367188 4.578125 -5.671875 3.984375 -5.671875 C 3.453125 -5.671875 2.773438 -5.488281 1.953125 -5.125 L 1.21875 -6.796875 C 2.070312 -7.234375 3.148438 -7.453125 4.453125 -7.453125 C 5.390625 -7.453125 6.113281 -7.21875 6.625 -6.75 C 7.144531 -6.289062 7.40625 -5.644531 7.40625 -4.8125 L 7.40625 0 Z M 3.78125 -1.65625 C 4.082031 -1.65625 4.34375 -1.75 4.5625 -1.9375 C 4.78125 -2.132812 4.890625 -2.390625 4.890625 -2.703125 L 4.890625 -3.28125 L 4.3125 -3.25 C 3.476562 -3.21875 3.0625 -2.910156 3.0625 -2.328125 C 3.0625 -1.878906 3.300781 -1.65625 3.78125 -1.65625 Z M 3.78125 -1.65625 "/></g></g><g transform="translate(337.992341, 402.05128)"><g><path d="M 5.296875 -7.453125 C 5.515625 -7.453125 5.722656 -7.4375 5.921875 -7.40625 L 6.0625 -7.375 L 5.84375 -5 C 5.632812 -5.050781 5.347656 -5.078125 4.984375 -5.078125 C 4.429688 -5.078125 4.03125 -4.945312 3.78125 -4.6875 C 3.53125 -4.4375 3.40625 -4.078125 3.40625 -3.609375 L 3.40625 0 L 0.875 0 L 0.875 -7.328125 L 2.75 -7.328125 L 3.15625 -6.15625 L 3.28125 -6.15625 C 3.488281 -6.539062 3.78125 -6.851562 4.15625 -7.09375 C 4.53125 -7.332031 4.910156 -7.453125 5.296875 -7.453125 Z M 5.296875 -7.453125 "/></g></g><g transform="translate(344.211472, 402.05128)"><g><path d="M 4.21875 0.125 C 3.007812 0.125 2.097656 -0.195312 1.484375 -0.84375 C 0.867188 -1.488281 0.5625 -2.414062 0.5625 -3.625 C 0.5625 -4.84375 0.894531 -5.785156 1.5625 -6.453125 C 2.226562 -7.117188 3.175781 -7.453125 4.40625 -7.453125 C 5.257812 -7.453125 6.0625 -7.269531 6.8125 -6.90625 L 6.0625 -5.03125 C 5.757812 -5.164062 5.476562 -5.269531 5.21875 -5.34375 C 4.957031 -5.425781 4.6875 -5.46875 4.40625 -5.46875 C 4 -5.46875 3.679688 -5.304688 3.453125 -4.984375 C 3.234375 -4.671875 3.125 -4.222656 3.125 -3.640625 C 3.125 -2.460938 3.554688 -1.875 4.421875 -1.875 C 5.160156 -1.875 5.875 -2.09375 6.5625 -2.53125 L 6.5625 -0.515625 C 5.90625 -0.0859375 5.125 0.125 4.21875 0.125 Z M 4.21875 0.125 "/></g></g><g transform="translate(351.35603, 402.05128)"><g><path d="M 5.484375 0 L 5.484375 -4 C 5.484375 -4.976562 5.191406 -5.46875 4.609375 -5.46875 C 4.191406 -5.46875 3.882812 -5.296875 3.6875 -4.953125 C 3.5 -4.609375 3.40625 -4.03125 3.40625 -3.21875 L 3.40625 0 L 0.875 0 L 0.875 -10.0625 L 3.40625 -10.0625 L 3.40625 -8.640625 C 3.40625 -7.992188 3.367188 -7.253906 3.296875 -6.421875 L 3.421875 -6.421875 C 3.660156 -6.804688 3.945312 -7.070312 4.28125 -7.21875 C 4.613281 -7.375 5 -7.453125 5.4375 -7.453125 C 6.25 -7.453125 6.882812 -7.21875 7.34375 -6.75 C 7.800781 -6.28125 8.03125 -5.617188 8.03125 -4.765625 L 8.03125 0 Z M 5.484375 0 "/></g></g></g><g fill="rgb(0%, 0%, 0%)" fill-opacity="1"><g transform="translate(385.037152, 402.05128)"><g><path d="M 6.09375 0 L 3.5 0 L 3.5 -5 C 3.5 -5.613281 3.507812 -6.171875 3.53125 -6.671875 C 3.375 -6.484375 3.175781 -6.28125 2.9375 -6.0625 L 1.875 -5.1875 L 0.546875 -6.8125 L 3.796875 -9.453125 L 6.09375 -9.453125 Z M 6.09375 0 "/></g></g><g transform="translate(392.802977, 402.05128)"><g><path d="M 7.5625 -1.828125 L 6.515625 -1.828125 L 6.515625 0 L 4 0 L 4 -1.828125 L 0.21875 -1.828125 L 0.21875 -3.703125 L 4.15625 -9.453125 L 6.515625 -9.453125 L 6.515625 -3.734375 L 7.5625 -3.734375 Z M 4 -3.734375 L 4 -4.84375 C 4 -5.050781 4.003906 -5.328125 4.015625 -5.671875 C 4.035156 -6.023438 4.050781 -6.210938 4.0625 -6.234375 L 3.984375 -6.234375 C 3.835938 -5.898438 3.671875 -5.585938 3.484375 -5.296875 L 2.4375 -3.734375 Z M 4 -3.734375 "/></g></g><g transform="translate(400.568801, 402.05128)"><g/></g><g transform="translate(404.01165, 402.05128)"><g><path d="M 5.140625 0 L 3.203125 -6.8125 L 3.15625 -6.8125 C 3.238281 -5.65625 3.28125 -4.753906 3.28125 -4.109375 L 3.28125 0 L 1.015625 0 L 1.015625 -9.453125 L 4.421875 -9.453125 L 6.40625 -2.75 L 6.453125 -2.75 L 8.390625 -9.453125 L 11.796875 -9.453125 L 11.796875 0 L 9.453125 0 L 9.453125 -4.140625 C 9.453125 -4.359375 9.453125 -4.597656 9.453125 -4.859375 C 9.460938 -5.128906 9.492188 -5.773438 9.546875 -6.796875 L 9.484375 -6.796875 L 7.578125 0 Z M 5.140625 0 "/></g></g><g transform="translate(416.82526, 402.05128)"><g><path d="M 5.65625 0 L 5.171875 -0.96875 L 5.125 -0.96875 C 4.78125 -0.550781 4.429688 -0.265625 4.078125 -0.109375 C 3.722656 0.046875 3.265625 0.125 2.703125 0.125 C 2.015625 0.125 1.472656 -0.078125 1.078125 -0.484375 C 0.679688 -0.898438 0.484375 -1.484375 0.484375 -2.234375 C 0.484375 -3.015625 0.753906 -3.597656 1.296875 -3.984375 C 1.835938 -4.367188 2.625 -4.582031 3.65625 -4.625 L 4.875 -4.671875 L 4.875 -4.765625 C 4.875 -5.367188 4.578125 -5.671875 3.984375 -5.671875 C 3.453125 -5.671875 2.773438 -5.488281 1.953125 -5.125 L 1.21875 -6.796875 C 2.070312 -7.234375 3.148438 -7.453125 4.453125 -7.453125 C 5.390625 -7.453125 6.113281 -7.21875 6.625 -6.75 C 7.144531 -6.289062 7.40625 -5.644531 7.40625 -4.8125 L 7.40625 0 Z M 3.78125 -1.65625 C 4.082031 -1.65625 4.34375 -1.75 4.5625 -1.9375 C 4.78125 -2.132812 4.890625 -2.390625 4.890625 -2.703125 L 4.890625 -3.28125 L 4.3125 -3.25 C 3.476562 -3.21875 3.0625 -2.910156 3.0625 -2.328125 C 3.0625 -1.878906 3.300781 -1.65625 3.78125 -1.65625 Z M 3.78125 -1.65625 "/></g></g><g transform="translate(425.08292, 402.05128)"><g><path d="M 5.296875 -7.453125 C 5.515625 -7.453125 5.722656 -7.4375 5.921875 -7.40625 L 6.0625 -7.375 L 5.84375 -5 C 5.632812 -5.050781 5.347656 -5.078125 4.984375 -5.078125 C 4.429688 -5.078125 4.03125 -4.945312 3.78125 -4.6875 C 3.53125 -4.4375 3.40625 -4.078125 3.40625 -3.609375 L 3.40625 0 L 0.875 0 L 0.875 -7.328125 L 2.75 -7.328125 L 3.15625 -6.15625 L 3.28125 -6.15625 C 3.488281 -6.539062 3.78125 -6.851562 4.15625 -7.09375 C 4.53125 -7.332031 4.910156 -7.453125 5.296875 -7.453125 Z M 5.296875 -7.453125 "/></g></g><g transform="translate(431.302051, 402.05128)"><g><path d="M 4.21875 0.125 C 3.007812 0.125 2.097656 -0.195312 1.484375 -0.84375 C 0.867188 -1.488281 0.5625 -2.414062 0.5625 -3.625 C 0.5625 -4.84375 0.894531 -5.785156 1.5625 -6.453125 C 2.226562 -7.117188 3.175781 -7.453125 4.40625 -7.453125 C 5.257812 -7.453125 6.0625 -7.269531 6.8125 -6.90625 L 6.0625 -5.03125 C 5.757812 -5.164062 5.476562 -5.269531 5.21875 -5.34375 C 4.957031 -5.425781 4.6875 -5.46875 4.40625 -5.46875 C 4 -5.46875 3.679688 -5.304688 3.453125 -4.984375 C 3.234375 -4.671875 3.125 -4.222656 3.125 -3.640625 C 3.125 -2.460938 3.554688 -1.875 4.421875 -1.875 C 5.160156 -1.875 5.875 -2.09375 6.5625 -2.53125 L 6.5625 -0.515625 C 5.90625 -0.0859375 5.125 0.125 4.21875 0.125 Z M 4.21875 0.125 "/></g></g><g transform="translate(438.44661, 402.05128)"><g><path d="M 5.484375 0 L 5.484375 -4 C 5.484375 -4.976562 5.191406 -5.46875 4.609375 -5.46875 C 4.191406 -5.46875 3.882812 -5.296875 3.6875 -4.953125 C 3.5 -4.609375 3.40625 -4.03125 3.40625 -3.21875 L 3.40625 0 L 0.875 0 L 0.875 -10.0625 L 3.40625 -10.0625 L 3.40625 -8.640625 C 3.40625 -7.992188 3.367188 -7.253906 3.296875 -6.421875 L 3.421875 -6.421875 C 3.660156 -6.804688 3.945312 -7.070312 4.28125 -7.21875 C 4.613281 -7.375 5 -7.453125 5.4375 -7.453125 C 6.25 -7.453125 6.882812 -7.21875 7.34375 -6.75 C 7.800781 -6.28125 8.03125 -5.617188 8.03125 -4.765625 L 8.03125 0 Z M 5.484375 0 "/></g></g></g><g fill="rgb(0%, 0%, 0%)" fill-opacity="1"><g transform="translate(471.391827, 402.05128)"><g><path d="M 6.09375 0 L 3.5 0 L 3.5 -5 C 3.5 -5.613281 3.507812 -6.171875 3.53125 -6.671875 C 3.375 -6.484375 3.175781 -6.28125 2.9375 -6.0625 L 1.875 -5.1875 L 0.546875 -6.8125 L 3.796875 -9.453125 L 6.09375 -9.453125 Z M 6.09375 0 "/></g></g><g transform="translate(479.157652, 402.05128)"><g><path d="M 4.296875 -6.203125 C 4.835938 -6.203125 5.328125 -6.070312 5.765625 -5.8125 C 6.203125 -5.5625 6.539062 -5.207031 6.78125 -4.75 C 7.03125 -4.289062 7.15625 -3.757812 7.15625 -3.15625 C 7.15625 -2.09375 6.835938 -1.28125 6.203125 -0.71875 C 5.566406 -0.15625 4.601562 0.125 3.3125 0.125 C 2.207031 0.125 1.304688 -0.0390625 0.609375 -0.375 L 0.609375 -2.484375 C 0.984375 -2.304688 1.40625 -2.160156 1.875 -2.046875 C 2.351562 -1.929688 2.757812 -1.875 3.09375 -1.875 C 3.570312 -1.875 3.9375 -1.972656 4.1875 -2.171875 C 4.445312 -2.378906 4.578125 -2.679688 4.578125 -3.078125 C 4.578125 -3.429688 4.445312 -3.707031 4.1875 -3.90625 C 3.925781 -4.113281 3.535156 -4.21875 3.015625 -4.21875 C 2.609375 -4.21875 2.171875 -4.144531 1.703125 -4 L 0.765625 -4.46875 L 1.125 -9.453125 L 6.515625 -9.453125 L 6.515625 -7.328125 L 3.296875 -7.328125 L 3.1875 -6.078125 C 3.519531 -6.140625 3.753906 -6.175781 3.890625 -6.1875 C 4.035156 -6.195312 4.171875 -6.203125 4.296875 -6.203125 Z M 4.296875 -6.203125 "/></g></g><g transform="translate(486.923476, 402.05128)"><g/></g><g transform="translate(490.366325, 402.05128)"><g><path d="M 5.140625 0 L 3.203125 -6.8125 L 3.15625 -6.8125 C 3.238281 -5.65625 3.28125 -4.753906 3.28125 -4.109375 L 3.28125 0 L 1.015625 0 L 1.015625 -9.453125 L 4.421875 -9.453125 L 6.40625 -2.75 L 6.453125 -2.75 L 8.390625 -9.453125 L 11.796875 -9.453125 L 11.796875 0 L 9.453125 0 L 9.453125 -4.140625 C 9.453125 -4.359375 9.453125 -4.597656 9.453125 -4.859375 C 9.460938 -5.128906 9.492188 -5.773438 9.546875 -6.796875 L 9.484375 -6.796875 L 7.578125 0 Z M 5.140625 0 "/></g></g><g transform="translate(503.179936, 402.05128)"><g><path d="M 5.65625 0 L 5.171875 -0.96875 L 5.125 -0.96875 C 4.78125 -0.550781 4.429688 -0.265625 4.078125 -0.109375 C 3.722656 0.046875 3.265625 0.125 2.703125 0.125 C 2.015625 0.125 1.472656 -0.078125 1.078125 -0.484375 C 0.679688 -0.898438 0.484375 -1.484375 0.484375 -2.234375 C 0.484375 -3.015625 0.753906 -3.597656 1.296875 -3.984375 C 1.835938 -4.367188 2.625 -4.582031 3.65625 -4.625 L 4.875 -4.671875 L 4.875 -4.765625 C 4.875 -5.367188 4.578125 -5.671875 3.984375 -5.671875 C 3.453125 -5.671875 2.773438 -5.488281 1.953125 -5.125 L 1.21875 -6.796875 C 2.070312 -7.234375 3.148438 -7.453125 4.453125 -7.453125 C 5.390625 -7.453125 6.113281 -7.21875 6.625 -6.75 C 7.144531 -6.289062 7.40625 -5.644531 7.40625 -4.8125 L 7.40625 0 Z M 3.78125 -1.65625 C 4.082031 -1.65625 4.34375 -1.75 4.5625 -1.9375 C 4.78125 -2.132812 4.890625 -2.390625 4.890625 -2.703125 L 4.890625 -3.28125 L 4.3125 -3.25 C 3.476562 -3.21875 3.0625 -2.910156 3.0625 -2.328125 C 3.0625 -1.878906 3.300781 -1.65625 3.78125 -1.65625 Z M 3.78125 -1.65625 "/></g></g><g transform="translate(511.437596, 402.05128)"><g><path d="M 5.296875 -7.453125 C 5.515625 -7.453125 5.722656 -7.4375 5.921875 -7.40625 L 6.0625 -7.375 L 5.84375 -5 C 5.632812 -5.050781 5.347656 -5.078125 4.984375 -5.078125 C 4.429688 -5.078125 4.03125 -4.945312 3.78125 -4.6875 C 3.53125 -4.4375 3.40625 -4.078125 3.40625 -3.609375 L 3.40625 0 L 0.875 0 L 0.875 -7.328125 L 2.75 -7.328125 L 3.15625 -6.15625 L 3.28125 -6.15625 C 3.488281 -6.539062 3.78125 -6.851562 4.15625 -7.09375 C 4.53125 -7.332031 4.910156 -7.453125 5.296875 -7.453125 Z M 5.296875 -7.453125 "/></g></g><g transform="translate(517.656727, 402.05128)"><g><path d="M 4.21875 0.125 C 3.007812 0.125 2.097656 -0.195312 1.484375 -0.84375 C 0.867188 -1.488281 0.5625 -2.414062 0.5625 -3.625 C 0.5625 -4.84375 0.894531 -5.785156 1.5625 -6.453125 C 2.226562 -7.117188 3.175781 -7.453125 4.40625 -7.453125 C 5.257812 -7.453125 6.0625 -7.269531 6.8125 -6.90625 L 6.0625 -5.03125 C 5.757812 -5.164062 5.476562 -5.269531 5.21875 -5.34375 C 4.957031 -5.425781 4.6875 -5.46875 4.40625 -5.46875 C 4 -5.46875 3.679688 -5.304688 3.453125 -4.984375 C 3.234375 -4.671875 3.125 -4.222656 3.125 -3.640625 C 3.125 -2.460938 3.554688 -1.875 4.421875 -1.875 C 5.160156 -1.875 5.875 -2.09375 6.5625 -2.53125 L 6.5625 -0.515625 C 5.90625 -0.0859375 5.125 0.125 4.21875 0.125 Z M 4.21875 0.125 "/></g></g><g transform="translate(524.801285, 402.05128)"><g><path d="M 5.484375 0 L 5.484375 -4 C 5.484375 -4.976562 5.191406 -5.46875 4.609375 -5.46875 C 4.191406 -5.46875 3.882812 -5.296875 3.6875 -4.953125 C 3.5 -4.609375 3.40625 -4.03125 3.40625 -3.21875 L 3.40625 0 L 0.875 0 L 0.875 -10.0625 L 3.40625 -10.0625 L 3.40625 -8.640625 C 3.40625 -7.992188 3.367188 -7.253906 3.296875 -6.421875 L 3.421875 -6.421875 C 3.660156 -6.804688 3.945312 -7.070312 4.28125 -7.21875 C 4.613281 -7.375 5 -7.453125 5.4375 -7.453125 C 6.25 -7.453125 6.882812 -7.21875 7.34375 -6.75 C 7.800781 -6.28125 8.03125 -5.617188 8.03125 -4.765625 L 8.03125 0 Z M 5.484375 0 "/></g></g></g><g fill="rgb(0%, 0%, 0%)" fill-opacity="1"><g transform="translate(562.722981, 402.05128)"><g><path d="M 6.09375 0 L 3.5 0 L 3.5 -5 C 3.5 -5.613281 3.507812 -6.171875 3.53125 -6.671875 C 3.375 -6.484375 3.175781 -6.28125 2.9375 -6.0625 L 1.875 -5.1875 L 0.546875 -6.8125 L 3.796875 -9.453125 L 6.09375 -9.453125 Z M 6.09375 0 "/></g></g><g transform="translate(570.488806, 402.05128)"><g><path d="M 0.453125 -4 C 0.453125 -5.320312 0.640625 -6.390625 1.015625 -7.203125 C 1.390625 -8.023438 1.945312 -8.628906 2.6875 -9.015625 C 3.425781 -9.398438 4.332031 -9.59375 5.40625 -9.59375 C 5.789062 -9.59375 6.238281 -9.554688 6.75 -9.484375 L 6.75 -7.484375 C 6.320312 -7.566406 5.851562 -7.609375 5.34375 -7.609375 C 4.488281 -7.609375 3.851562 -7.421875 3.4375 -7.046875 C 3.019531 -6.671875 2.789062 -6.054688 2.75 -5.203125 L 2.828125 -5.203125 C 3.222656 -5.941406 3.847656 -6.3125 4.703125 -6.3125 C 5.546875 -6.3125 6.195312 -6.039062 6.65625 -5.5 C 7.125 -4.957031 7.359375 -4.203125 7.359375 -3.234375 C 7.359375 -2.191406 7.0625 -1.367188 6.46875 -0.765625 C 5.882812 -0.171875 5.066406 0.125 4.015625 0.125 C 2.898438 0.125 2.023438 -0.234375 1.390625 -0.953125 C 0.765625 -1.679688 0.453125 -2.695312 0.453125 -4 Z M 3.953125 -1.890625 C 4.222656 -1.890625 4.441406 -1.992188 4.609375 -2.203125 C 4.785156 -2.410156 4.875 -2.738281 4.875 -3.1875 C 4.875 -3.945312 4.578125 -4.328125 3.984375 -4.328125 C 3.691406 -4.328125 3.453125 -4.226562 3.265625 -4.03125 C 3.085938 -3.832031 3 -3.59375 3 -3.3125 C 3 -2.894531 3.085938 -2.550781 3.265625 -2.28125 C 3.441406 -2.019531 3.671875 -1.890625 3.953125 -1.890625 Z M 3.953125 -1.890625 "/></g></g><g transform="translate(578.25463, 402.05128)"><g/></g><g transform="translate(581.697479, 402.05128)"><g><path d="M 5.140625 0 L 3.203125 -6.8125 L 3.15625 -6.8125 C 3.238281 -5.65625 3.28125 -4.753906 3.28125 -4.109375 L 3.28125 0 L 1.015625 0 L 1.015625 -9.453125 L 4.421875 -9.453125 L 6.40625 -2.75 L 6.453125 -2.75 L 8.390625 -9.453125 L 11.796875 -9.453125 L 11.796875 0 L 9.453125 0 L 9.453125 -4.140625 C 9.453125 -4.359375 9.453125 -4.597656 9.453125 -4.859375 C 9.460938 -5.128906 9.492188 -5.773438 9.546875 -6.796875 L 9.484375 -6.796875 L 7.578125 0 Z M 5.140625 0 "/></g></g><g transform="translate(594.51109, 402.05128)"><g><path d="M 5.65625 0 L 5.171875 -0.96875 L 5.125 -0.96875 C 4.78125 -0.550781 4.429688 -0.265625 4.078125 -0.109375 C 3.722656 0.046875 3.265625 0.125 2.703125 0.125 C 2.015625 0.125 1.472656 -0.078125 1.078125 -0.484375 C 0.679688 -0.898438 0.484375 -1.484375 0.484375 -2.234375 C 0.484375 -3.015625 0.753906 -3.597656 1.296875 -3.984375 C 1.835938 -4.367188 2.625 -4.582031 3.65625 -4.625 L 4.875 -4.671875 L 4.875 -4.765625 C 4.875 -5.367188 4.578125 -5.671875 3.984375 -5.671875 C 3.453125 -5.671875 2.773438 -5.488281 1.953125 -5.125 L 1.21875 -6.796875 C 2.070312 -7.234375 3.148438 -7.453125 4.453125 -7.453125 C 5.390625 -7.453125 6.113281 -7.21875 6.625 -6.75 C 7.144531 -6.289062 7.40625 -5.644531 7.40625 -4.8125 L 7.40625 0 Z M 3.78125 -1.65625 C 4.082031 -1.65625 4.34375 -1.75 4.5625 -1.9375 C 4.78125 -2.132812 4.890625 -2.390625 4.890625 -2.703125 L 4.890625 -3.28125 L 4.3125 -3.25 C 3.476562 -3.21875 3.0625 -2.910156 3.0625 -2.328125 C 3.0625 -1.878906 3.300781 -1.65625 3.78125 -1.65625 Z M 3.78125 -1.65625 "/></g></g><g transform="translate(602.76875, 402.05128)"><g><path d="M 5.296875 -7.453125 C 5.515625 -7.453125 5.722656 -7.4375 5.921875 -7.40625 L 6.0625 -7.375 L 5.84375 -5 C 5.632812 -5.050781 5.347656 -5.078125 4.984375 -5.078125 C 4.429688 -5.078125 4.03125 -4.945312 3.78125 -4.6875 C 3.53125 -4.4375 3.40625 -4.078125 3.40625 -3.609375 L 3.40625 0 L 0.875 0 L 0.875 -7.328125 L 2.75 -7.328125 L 3.15625 -6.15625 L 3.28125 -6.15625 C 3.488281 -6.539062 3.78125 -6.851562 4.15625 -7.09375 C 4.53125 -7.332031 4.910156 -7.453125 5.296875 -7.453125 Z M 5.296875 -7.453125 "/></g></g><g transform="translate(608.987881, 402.05128)"><g><path d="M 4.21875 0.125 C 3.007812 0.125 2.097656 -0.195312 1.484375 -0.84375 C 0.867188 -1.488281 0.5625 -2.414062 0.5625 -3.625 C 0.5625 -4.84375 0.894531 -5.785156 1.5625 -6.453125 C 2.226562 -7.117188 3.175781 -7.453125 4.40625 -7.453125 C 5.257812 -7.453125 6.0625 -7.269531 6.8125 -6.90625 L 6.0625 -5.03125 C 5.757812 -5.164062 5.476562 -5.269531 5.21875 -5.34375 C 4.957031 -5.425781 4.6875 -5.46875 4.40625 -5.46875 C 4 -5.46875 3.679688 -5.304688 3.453125 -4.984375 C 3.234375 -4.671875 3.125 -4.222656 3.125 -3.640625 C 3.125 -2.460938 3.554688 -1.875 4.421875 -1.875 C 5.160156 -1.875 5.875 -2.09375 6.5625 -2.53125 L 6.5625 -0.515625 C 5.90625 -0.0859375 5.125 0.125 4.21875 0.125 Z M 4.21875 0.125 "/></g></g><g transform="translate(616.132439, 402.05128)"><g><path d="M 5.484375 0 L 5.484375 -4 C 5.484375 -4.976562 5.191406 -5.46875 4.609375 -5.46875 C 4.191406 -5.46875 3.882812 -5.296875 3.6875 -4.953125 C 3.5 -4.609375 3.40625 -4.03125 3.40625 -3.21875 L 3.40625 0 L 0.875 0 L 0.875 -10.0625 L 3.40625 -10.0625 L 3.40625 -8.640625 C 3.40625 -7.992188 3.367188 -7.253906 3.296875 -6.421875 L 3.421875 -6.421875 C 3.660156 -6.804688 3.945312 -7.070312 4.28125 -7.21875 C 4.613281 -7.375 5 -7.453125 5.4375 -7.453125 C 6.25 -7.453125 6.882812 -7.21875 7.34375 -6.75 C 7.800781 -6.28125 8.03125 -5.617188 8.03125 -4.765625 L 8.03125 0 Z M 5.484375 0 "/></g></g></g><g fill="rgb(0%, 0%, 0%)" fill-opacity="1"><g transform="translate(651.933832, 402.05128)"><g><path d="M 6.09375 0 L 3.5 0 L 3.5 -5 C 3.5 -5.613281 3.507812 -6.171875 3.53125 -6.671875 C 3.375 -6.484375 3.175781 -6.28125 2.9375 -6.0625 L 1.875 -5.1875 L 0.546875 -6.8125 L 3.796875 -9.453125 L 6.09375 -9.453125 Z M 6.09375 0 "/></g></g><g transform="translate(659.699656, 402.05128)"><g><path d="M 1.359375 0 L 4.59375 -7.328125 L 0.5 -7.328125 L 0.5 -9.453125 L 7.328125 -9.453125 L 7.328125 -7.9375 L 4 0 Z M 1.359375 0 "/></g></g><g transform="translate(667.46548, 402.05128)"><g/></g><g transform="translate(670.908329, 402.05128)"><g><path d="M 5.140625 0 L 3.203125 -6.8125 L 3.15625 -6.8125 C 3.238281 -5.65625 3.28125 -4.753906 3.28125 -4.109375 L 3.28125 0 L 1.015625 0 L 1.015625 -9.453125 L 4.421875 -9.453125 L 6.40625 -2.75 L 6.453125 -2.75 L 8.390625 -9.453125 L 11.796875 -9.453125 L 11.796875 0 L 9.453125 0 L 9.453125 -4.140625 C 9.453125 -4.359375 9.453125 -4.597656 9.453125 -4.859375 C 9.460938 -5.128906 9.492188 -5.773438 9.546875 -6.796875 L 9.484375 -6.796875 L 7.578125 0 Z M 5.140625 0 "/></g></g><g transform="translate(683.72194, 402.05128)"><g><path d="M 5.65625 0 L 5.171875 -0.96875 L 5.125 -0.96875 C 4.78125 -0.550781 4.429688 -0.265625 4.078125 -0.109375 C 3.722656 0.046875 3.265625 0.125 2.703125 0.125 C 2.015625 0.125 1.472656 -0.078125 1.078125 -0.484375 C 0.679688 -0.898438 0.484375 -1.484375 0.484375 -2.234375 C 0.484375 -3.015625 0.753906 -3.597656 1.296875 -3.984375 C 1.835938 -4.367188 2.625 -4.582031 3.65625 -4.625 L 4.875 -4.671875 L 4.875 -4.765625 C 4.875 -5.367188 4.578125 -5.671875 3.984375 -5.671875 C 3.453125 -5.671875 2.773438 -5.488281 1.953125 -5.125 L 1.21875 -6.796875 C 2.070312 -7.234375 3.148438 -7.453125 4.453125 -7.453125 C 5.390625 -7.453125 6.113281 -7.21875 6.625 -6.75 C 7.144531 -6.289062 7.40625 -5.644531 7.40625 -4.8125 L 7.40625 0 Z M 3.78125 -1.65625 C 4.082031 -1.65625 4.34375 -1.75 4.5625 -1.9375 C 4.78125 -2.132812 4.890625 -2.390625 4.890625 -2.703125 L 4.890625 -3.28125 L 4.3125 -3.25 C 3.476562 -3.21875 3.0625 -2.910156 3.0625 -2.328125 C 3.0625 -1.878906 3.300781 -1.65625 3.78125 -1.65625 Z M 3.78125 -1.65625 "/></g></g><g transform="translate(691.9796, 402.05128)"><g><path d="M 5.296875 -7.453125 C 5.515625 -7.453125 5.722656 -7.4375 5.921875 -7.40625 L 6.0625 -7.375 L 5.84375 -5 C 5.632812 -5.050781 5.347656 -5.078125 4.984375 -5.078125 C 4.429688 -5.078125 4.03125 -4.945312 3.78125 -4.6875 C 3.53125 -4.4375 3.40625 -4.078125 3.40625 -3.609375 L 3.40625 0 L 0.875 0 L 0.875 -7.328125 L 2.75 -7.328125 L 3.15625 -6.15625 L 3.28125 -6.15625 C 3.488281 -6.539062 3.78125 -6.851562 4.15625 -7.09375 C 4.53125 -7.332031 4.910156 -7.453125 5.296875 -7.453125 Z M 5.296875 -7.453125 "/></g></g><g transform="translate(698.198731, 402.05128)"><g><path d="M 4.21875 0.125 C 3.007812 0.125 2.097656 -0.195312 1.484375 -0.84375 C 0.867188 -1.488281 0.5625 -2.414062 0.5625 -3.625 C 0.5625 -4.84375 0.894531 -5.785156 1.5625 -6.453125 C 2.226562 -7.117188 3.175781 -7.453125 4.40625 -7.453125 C 5.257812 -7.453125 6.0625 -7.269531 6.8125 -6.90625 L 6.0625 -5.03125 C 5.757812 -5.164062 5.476562 -5.269531 5.21875 -5.34375 C 4.957031 -5.425781 4.6875 -5.46875 4.40625 -5.46875 C 4 -5.46875 3.679688 -5.304688 3.453125 -4.984375 C 3.234375 -4.671875 3.125 -4.222656 3.125 -3.640625 C 3.125 -2.460938 3.554688 -1.875 4.421875 -1.875 C 5.160156 -1.875 5.875 -2.09375 6.5625 -2.53125 L 6.5625 -0.515625 C 5.90625 -0.0859375 5.125 0.125 4.21875 0.125 Z M 4.21875 0.125 "/></g></g><g transform="translate(705.343289, 402.05128)"><g><path d="M 5.484375 0 L 5.484375 -4 C 5.484375 -4.976562 5.191406 -5.46875 4.609375 -5.46875 C 4.191406 -5.46875 3.882812 -5.296875 3.6875 -4.953125 C 3.5 -4.609375 3.40625 -4.03125 3.40625 -3.21875 L 3.40625 0 L 0.875 0 L 0.875 -10.0625 L 3.40625 -10.0625 L 3.40625 -8.640625 C 3.40625 -7.992188 3.367188 -7.253906 3.296875 -6.421875 L 3.421875 -6.421875 C 3.660156 -6.804688 3.945312 -7.070312 4.28125 -7.21875 C 4.613281 -7.375 5 -7.453125 5.4375 -7.453125 C 6.25 -7.453125 6.882812 -7.21875 7.34375 -6.75 C 7.800781 -6.28125 8.03125 -5.617188 8.03125 -4.765625 L 8.03125 0 Z M 5.484375 0 "/></g></g></g><g fill="rgb(0%, 0%, 0%)" fill-opacity="1"><g transform="translate(741.144682, 402.05128)"><g><path d="M 6.09375 0 L 3.5 0 L 3.5 -5 C 3.5 -5.613281 3.507812 -6.171875 3.53125 -6.671875 C 3.375 -6.484375 3.175781 -6.28125 2.9375 -6.0625 L 1.875 -5.1875 L 0.546875 -6.8125 L 3.796875 -9.453125 L 6.09375 -9.453125 Z M 6.09375 0 "/></g></g><g transform="translate(748.910506, 402.05128)"><g><path d="M 3.90625 -9.59375 C 4.90625 -9.59375 5.679688 -9.390625 6.234375 -8.984375 C 6.785156 -8.585938 7.0625 -8.019531 7.0625 -7.28125 C 7.0625 -6.78125 6.929688 -6.34375 6.671875 -5.96875 C 6.410156 -5.59375 6 -5.265625 5.4375 -4.984375 C 6.132812 -4.585938 6.625 -4.191406 6.90625 -3.796875 C 7.195312 -3.398438 7.34375 -2.972656 7.34375 -2.515625 C 7.34375 -1.671875 7.035156 -1.019531 6.421875 -0.5625 C 5.816406 -0.101562 4.96875 0.125 3.875 0.125 C 2.769531 0.125 1.921875 -0.0976562 1.328125 -0.546875 C 0.734375 -0.992188 0.4375 -1.640625 0.4375 -2.484375 C 0.4375 -3.035156 0.566406 -3.503906 0.828125 -3.890625 C 1.097656 -4.273438 1.539062 -4.625 2.15625 -4.9375 C 1.65625 -5.28125 1.289062 -5.644531 1.0625 -6.03125 C 0.832031 -6.414062 0.71875 -6.835938 0.71875 -7.296875 C 0.71875 -8.023438 1 -8.585938 1.5625 -8.984375 C 2.125 -9.390625 2.90625 -9.59375 3.90625 -9.59375 Z M 2.78125 -2.59375 C 2.78125 -2.320312 2.875 -2.101562 3.0625 -1.9375 C 3.25 -1.78125 3.515625 -1.703125 3.859375 -1.703125 C 4.617188 -1.703125 5 -1.984375 5 -2.546875 C 5 -2.753906 4.914062 -2.957031 4.75 -3.15625 C 4.582031 -3.363281 4.285156 -3.597656 3.859375 -3.859375 C 3.472656 -3.648438 3.195312 -3.441406 3.03125 -3.234375 C 2.863281 -3.035156 2.78125 -2.820312 2.78125 -2.59375 Z M 3.890625 -7.75 C 3.671875 -7.75 3.484375 -7.6875 3.328125 -7.5625 C 3.179688 -7.4375 3.109375 -7.269531 3.109375 -7.0625 C 3.109375 -6.695312 3.363281 -6.367188 3.875 -6.078125 C 4.175781 -6.253906 4.382812 -6.414062 4.5 -6.5625 C 4.613281 -6.707031 4.671875 -6.875 4.671875 -7.0625 C 4.671875 -7.269531 4.59375 -7.4375 4.4375 -7.5625 C 4.289062 -7.6875 4.109375 -7.75 3.890625 -7.75 Z M 3.890625 -7.75 "/></g></g><g transform="translate(756.676331, 402.05128)"><g/></g><g transform="translate(760.11918, 402.05128)"><g><path d="M 5.140625 0 L 3.203125 -6.8125 L 3.15625 -6.8125 C 3.238281 -5.65625 3.28125 -4.753906 3.28125 -4.109375 L 3.28125 0 L 1.015625 0 L 1.015625 -9.453125 L 4.421875 -9.453125 L 6.40625 -2.75 L 6.453125 -2.75 L 8.390625 -9.453125 L 11.796875 -9.453125 L 11.796875 0 L 9.453125 0 L 9.453125 -4.140625 C 9.453125 -4.359375 9.453125 -4.597656 9.453125 -4.859375 C 9.460938 -5.128906 9.492188 -5.773438 9.546875 -6.796875 L 9.484375 -6.796875 L 7.578125 0 Z M 5.140625 0 "/></g></g><g transform="translate(772.93279, 402.05128)"><g><path d="M 5.65625 0 L 5.171875 -0.96875 L 5.125 -0.96875 C 4.78125 -0.550781 4.429688 -0.265625 4.078125 -0.109375 C 3.722656 0.046875 3.265625 0.125 2.703125 0.125 C 2.015625 0.125 1.472656 -0.078125 1.078125 -0.484375 C 0.679688 -0.898438 0.484375 -1.484375 0.484375 -2.234375 C 0.484375 -3.015625 0.753906 -3.597656 1.296875 -3.984375 C 1.835938 -4.367188 2.625 -4.582031 3.65625 -4.625 L 4.875 -4.671875 L 4.875 -4.765625 C 4.875 -5.367188 4.578125 -5.671875 3.984375 -5.671875 C 3.453125 -5.671875 2.773438 -5.488281 1.953125 -5.125 L 1.21875 -6.796875 C 2.070312 -7.234375 3.148438 -7.453125 4.453125 -7.453125 C 5.390625 -7.453125 6.113281 -7.21875 6.625 -6.75 C 7.144531 -6.289062 7.40625 -5.644531 7.40625 -4.8125 L 7.40625 0 Z M 3.78125 -1.65625 C 4.082031 -1.65625 4.34375 -1.75 4.5625 -1.9375 C 4.78125 -2.132812 4.890625 -2.390625 4.890625 -2.703125 L 4.890625 -3.28125 L 4.3125 -3.25 C 3.476562 -3.21875 3.0625 -2.910156 3.0625 -2.328125 C 3.0625 -1.878906 3.300781 -1.65625 3.78125 -1.65625 Z M 3.78125 -1.65625 "/></g></g><g transform="translate(781.19045, 402.05128)"><g><path d="M 5.296875 -7.453125 C 5.515625 -7.453125 5.722656 -7.4375 5.921875 -7.40625 L 6.0625 -7.375 L 5.84375 -5 C 5.632812 -5.050781 5.347656 -5.078125 4.984375 -5.078125 C 4.429688 -5.078125 4.03125 -4.945312 3.78125 -4.6875 C 3.53125 -4.4375 3.40625 -4.078125 3.40625 -3.609375 L 3.40625 0 L 0.875 0 L 0.875 -7.328125 L 2.75 -7.328125 L 3.15625 -6.15625 L 3.28125 -6.15625 C 3.488281 -6.539062 3.78125 -6.851562 4.15625 -7.09375 C 4.53125 -7.332031 4.910156 -7.453125 5.296875 -7.453125 Z M 5.296875 -7.453125 "/></g></g><g transform="translate(787.409581, 402.05128)"><g><path d="M 4.21875 0.125 C 3.007812 0.125 2.097656 -0.195312 1.484375 -0.84375 C 0.867188 -1.488281 0.5625 -2.414062 0.5625 -3.625 C 0.5625 -4.84375 0.894531 -5.785156 1.5625 -6.453125 C 2.226562 -7.117188 3.175781 -7.453125 4.40625 -7.453125 C 5.257812 -7.453125 6.0625 -7.269531 6.8125 -6.90625 L 6.0625 -5.03125 C 5.757812 -5.164062 5.476562 -5.269531 5.21875 -5.34375 C 4.957031 -5.425781 4.6875 -5.46875 4.40625 -5.46875 C 4 -5.46875 3.679688 -5.304688 3.453125 -4.984375 C 3.234375 -4.671875 3.125 -4.222656 3.125 -3.640625 C 3.125 -2.460938 3.554688 -1.875 4.421875 -1.875 C 5.160156 -1.875 5.875 -2.09375 6.5625 -2.53125 L 6.5625 -0.515625 C 5.90625 -0.0859375 5.125 0.125 4.21875 0.125 Z M 4.21875 0.125 "/></g></g><g transform="translate(794.55414, 402.05128)"><g><path d="M 5.484375 0 L 5.484375 -4 C 5.484375 -4.976562 5.191406 -5.46875 4.609375 -5.46875 C 4.191406 -5.46875 3.882812 -5.296875 3.6875 -4.953125 C 3.5 -4.609375 3.40625 -4.03125 3.40625 -3.21875 L 3.40625 0 L 0.875 0 L 0.875 -10.0625 L 3.40625 -10.0625 L 3.40625 -8.640625 C 3.40625 -7.992188 3.367188 -7.253906 3.296875 -6.421875 L 3.421875 -6.421875 C 3.660156 -6.804688 3.945312 -7.070312 4.28125 -7.21875 C 4.613281 -7.375 5 -7.453125 5.4375 -7.453125 C 6.25 -7.453125 6.882812 -7.21875 7.34375 -6.75 C 7.800781 -6.28125 8.03125 -5.617188 8.03125 -4.765625 L 8.03125 0 Z M 5.484375 0 "/></g></g></g><g fill="rgb(0%, 0%, 0%)" fill-opacity="1"><g transform="translate(54.779047, 241.27305)"><g><path d="M 11 -11.734375 C 11 -10.804688 10.710938 -10.007812 10.140625 -9.34375 C 9.578125 -8.675781 8.757812 -8.191406 7.6875 -7.890625 L 7.6875 -7.828125 C 10.1875 -7.515625 11.4375 -6.332031 11.4375 -4.28125 C 11.4375 -2.882812 10.882812 -1.785156 9.78125 -0.984375 C 8.675781 -0.191406 7.144531 0.203125 5.1875 0.203125 C 4.382812 0.203125 3.640625 0.144531 2.953125 0.03125 C 2.265625 -0.0820312 1.519531 -0.296875 0.71875 -0.609375 L 0.71875 -3.96875 C 1.375 -3.632812 2.039062 -3.382812 2.71875 -3.21875 C 3.40625 -3.0625 4.035156 -2.984375 4.609375 -2.984375 C 5.492188 -2.984375 6.140625 -3.109375 6.546875 -3.359375 C 6.953125 -3.609375 7.15625 -4 7.15625 -4.53125 C 7.15625 -4.9375 7.046875 -5.25 6.828125 -5.46875 C 6.617188 -5.695312 6.28125 -5.867188 5.8125 -5.984375 C 5.34375 -6.097656 4.726562 -6.15625 3.96875 -6.15625 L 3.046875 -6.15625 L 3.046875 -9.203125 L 3.984375 -9.203125 C 6.046875 -9.203125 7.078125 -9.726562 7.078125 -10.78125 C 7.078125 -11.175781 6.921875 -11.46875 6.609375 -11.65625 C 6.304688 -11.851562 5.898438 -11.953125 5.390625 -11.953125 C 4.429688 -11.953125 3.441406 -11.628906 2.421875 -10.984375 L 0.734375 -13.6875 C 1.523438 -14.238281 2.335938 -14.628906 3.171875 -14.859375 C 4.003906 -15.085938 4.957031 -15.203125 6.03125 -15.203125 C 7.582031 -15.203125 8.796875 -14.894531 9.671875 -14.28125 C 10.554688 -13.664062 11 -12.816406 11 -11.734375 Z M 11 -11.734375 "/></g></g><g transform="translate(67.083733, 241.27305)"><g><path d="M 11.984375 -2.90625 L 10.34375 -2.90625 L 10.34375 0 L 6.34375 0 L 6.34375 -2.90625 L 0.359375 -2.90625 L 0.359375 -5.875 L 6.59375 -14.984375 L 10.34375 -14.984375 L 10.34375 -5.921875 L 11.984375 -5.921875 Z M 6.34375 -5.921875 L 6.34375 -7.671875 C 6.34375 -7.992188 6.351562 -8.429688 6.375 -8.984375 C 6.394531 -9.546875 6.410156 -9.84375 6.421875 -9.875 L 6.3125 -9.875 C 6.082031 -9.34375 5.820312 -8.847656 5.53125 -8.390625 L 3.859375 -5.921875 Z M 6.34375 -5.921875 "/></g></g></g><g fill="rgb(0%, 0%, 0%)" fill-opacity="1"><g transform="translate(141.707447, 253.798035)"><g><path d="M 11 -11.734375 C 11 -10.804688 10.710938 -10.007812 10.140625 -9.34375 C 9.578125 -8.675781 8.757812 -8.191406 7.6875 -7.890625 L 7.6875 -7.828125 C 10.1875 -7.515625 11.4375 -6.332031 11.4375 -4.28125 C 11.4375 -2.882812 10.882812 -1.785156 9.78125 -0.984375 C 8.675781 -0.191406 7.144531 0.203125 5.1875 0.203125 C 4.382812 0.203125 3.640625 0.144531 2.953125 0.03125 C 2.265625 -0.0820312 1.519531 -0.296875 0.71875 -0.609375 L 0.71875 -3.96875 C 1.375 -3.632812 2.039062 -3.382812 2.71875 -3.21875 C 3.40625 -3.0625 4.035156 -2.984375 4.609375 -2.984375 C 5.492188 -2.984375 6.140625 -3.109375 6.546875 -3.359375 C 6.953125 -3.609375 7.15625 -4 7.15625 -4.53125 C 7.15625 -4.9375 7.046875 -5.25 6.828125 -5.46875 C 6.617188 -5.695312 6.28125 -5.867188 5.8125 -5.984375 C 5.34375 -6.097656 4.726562 -6.15625 3.96875 -6.15625 L 3.046875 -6.15625 L 3.046875 -9.203125 L 3.984375 -9.203125 C 6.046875 -9.203125 7.078125 -9.726562 7.078125 -10.78125 C 7.078125 -11.175781 6.921875 -11.46875 6.609375 -11.65625 C 6.304688 -11.851562 5.898438 -11.953125 5.390625 -11.953125 C 4.429688 -11.953125 3.441406 -11.628906 2.421875 -10.984375 L 0.734375 -13.6875 C 1.523438 -14.238281 2.335938 -14.628906 3.171875 -14.859375 C 4.003906 -15.085938 4.957031 -15.203125 6.03125 -15.203125 C 7.582031 -15.203125 8.796875 -14.894531 9.671875 -14.28125 C 10.554688 -13.664062 11 -12.816406 11 -11.734375 Z M 11 -11.734375 "/></g></g><g transform="translate(154.012133, 253.798035)"><g><path d="M 11 -11.734375 C 11 -10.804688 10.710938 -10.007812 10.140625 -9.34375 C 9.578125 -8.675781 8.757812 -8.191406 7.6875 -7.890625 L 7.6875 -7.828125 C 10.1875 -7.515625 11.4375 -6.332031 11.4375 -4.28125 C 11.4375 -2.882812 10.882812 -1.785156 9.78125 -0.984375 C 8.675781 -0.191406 7.144531 0.203125 5.1875 0.203125 C 4.382812 0.203125 3.640625 0.144531 2.953125 0.03125 C 2.265625 -0.0820312 1.519531 -0.296875 0.71875 -0.609375 L 0.71875 -3.96875 C 1.375 -3.632812 2.039062 -3.382812 2.71875 -3.21875 C 3.40625 -3.0625 4.035156 -2.984375 4.609375 -2.984375 C 5.492188 -2.984375 6.140625 -3.109375 6.546875 -3.359375 C 6.953125 -3.609375 7.15625 -4 7.15625 -4.53125 C 7.15625 -4.9375 7.046875 -5.25 6.828125 -5.46875 C 6.617188 -5.695312 6.28125 -5.867188 5.8125 -5.984375 C 5.34375 -6.097656 4.726562 -6.15625 3.96875 -6.15625 L 3.046875 -6.15625 L 3.046875 -9.203125 L 3.984375 -9.203125 C 6.046875 -9.203125 7.078125 -9.726562 7.078125 -10.78125 C 7.078125 -11.175781 6.921875 -11.46875 6.609375 -11.65625 C 6.304688 -11.851562 5.898438 -11.953125 5.390625 -11.953125 C 4.429688 -11.953125 3.441406 -11.628906 2.421875 -10.984375 L 0.734375 -13.6875 C 1.523438 -14.238281 2.335938 -14.628906 3.171875 -14.859375 C 4.003906 -15.085938 4.957031 -15.203125 6.03125 -15.203125 C 7.582031 -15.203125 8.796875 -14.894531 9.671875 -14.28125 C 10.554688 -13.664062 11 -12.816406 11 -11.734375 Z M 11 -11.734375 "/></g></g></g><g fill="rgb(0%, 0%, 0%)" fill-opacity="1"><g transform="translate(229.695991, 219.749986)"><g><path d="M 11 -11.734375 C 11 -10.804688 10.710938 -10.007812 10.140625 -9.34375 C 9.578125 -8.675781 8.757812 -8.191406 7.6875 -7.890625 L 7.6875 -7.828125 C 10.1875 -7.515625 11.4375 -6.332031 11.4375 -4.28125 C 11.4375 -2.882812 10.882812 -1.785156 9.78125 -0.984375 C 8.675781 -0.191406 7.144531 0.203125 5.1875 0.203125 C 4.382812 0.203125 3.640625 0.144531 2.953125 0.03125 C 2.265625 -0.0820312 1.519531 -0.296875 0.71875 -0.609375 L 0.71875 -3.96875 C 1.375 -3.632812 2.039062 -3.382812 2.71875 -3.21875 C 3.40625 -3.0625 4.035156 -2.984375 4.609375 -2.984375 C 5.492188 -2.984375 6.140625 -3.109375 6.546875 -3.359375 C 6.953125 -3.609375 7.15625 -4 7.15625 -4.53125 C 7.15625 -4.9375 7.046875 -5.25 6.828125 -5.46875 C 6.617188 -5.695312 6.28125 -5.867188 5.8125 -5.984375 C 5.34375 -6.097656 4.726562 -6.15625 3.96875 -6.15625 L 3.046875 -6.15625 L 3.046875 -9.203125 L 3.984375 -9.203125 C 6.046875 -9.203125 7.078125 -9.726562 7.078125 -10.78125 C 7.078125 -11.175781 6.921875 -11.46875 6.609375 -11.65625 C 6.304688 -11.851562 5.898438 -11.953125 5.390625 -11.953125 C 4.429688 -11.953125 3.441406 -11.628906 2.421875 -10.984375 L 0.734375 -13.6875 C 1.523438 -14.238281 2.335938 -14.628906 3.171875 -14.859375 C 4.003906 -15.085938 4.957031 -15.203125 6.03125 -15.203125 C 7.582031 -15.203125 8.796875 -14.894531 9.671875 -14.28125 C 10.554688 -13.664062 11 -12.816406 11 -11.734375 Z M 11 -11.734375 "/></g></g><g transform="translate(242.000678, 219.749986)"><g><path d="M 6.1875 -15.203125 C 7.769531 -15.203125 9 -14.882812 9.875 -14.25 C 10.757812 -13.613281 11.203125 -12.710938 11.203125 -11.546875 C 11.203125 -10.753906 10.992188 -10.054688 10.578125 -9.453125 C 10.160156 -8.859375 9.503906 -8.335938 8.609375 -7.890625 C 9.722656 -7.265625 10.503906 -6.640625 10.953125 -6.015625 C 11.410156 -5.390625 11.640625 -4.710938 11.640625 -3.984375 C 11.640625 -2.648438 11.15625 -1.617188 10.1875 -0.890625 C 9.226562 -0.160156 7.882812 0.203125 6.15625 0.203125 C 4.382812 0.203125 3.03125 -0.148438 2.09375 -0.859375 C 1.164062 -1.578125 0.703125 -2.609375 0.703125 -3.953125 C 0.703125 -4.816406 0.910156 -5.550781 1.328125 -6.15625 C 1.742188 -6.769531 2.441406 -7.328125 3.421875 -7.828125 C 2.628906 -8.367188 2.050781 -8.941406 1.6875 -9.546875 C 1.320312 -10.160156 1.140625 -10.832031 1.140625 -11.5625 C 1.140625 -12.71875 1.585938 -13.613281 2.484375 -14.25 C 3.378906 -14.882812 4.613281 -15.203125 6.1875 -15.203125 Z M 4.40625 -4.109375 C 4.40625 -3.679688 4.554688 -3.335938 4.859375 -3.078125 C 5.160156 -2.828125 5.578125 -2.703125 6.109375 -2.703125 C 7.316406 -2.703125 7.921875 -3.144531 7.921875 -4.03125 C 7.921875 -4.363281 7.785156 -4.691406 7.515625 -5.015625 C 7.253906 -5.335938 6.785156 -5.703125 6.109375 -6.109375 C 5.503906 -5.785156 5.066406 -5.460938 4.796875 -5.140625 C 4.535156 -4.816406 4.40625 -4.472656 4.40625 -4.109375 Z M 6.171875 -12.28125 C 5.828125 -12.28125 5.535156 -12.175781 5.296875 -11.96875 C 5.054688 -11.769531 4.9375 -11.515625 4.9375 -11.203125 C 4.9375 -10.609375 5.332031 -10.085938 6.125 -9.640625 C 6.613281 -9.921875 6.945312 -10.175781 7.125 -10.40625 C 7.300781 -10.632812 7.390625 -10.898438 7.390625 -11.203125 C 7.390625 -11.523438 7.269531 -11.785156 7.03125 -11.984375 C 6.789062 -12.179688 6.503906 -12.28125 6.171875 -12.28125 Z M 6.171875 -12.28125 "/></g></g></g><g fill="rgb(0%, 0%, 0%)" fill-opacity="1"><g transform="translate(316.948701, 238.486302)"><g><path d="M 11 -11.734375 C 11 -10.804688 10.710938 -10.007812 10.140625 -9.34375 C 9.578125 -8.675781 8.757812 -8.191406 7.6875 -7.890625 L 7.6875 -7.828125 C 10.1875 -7.515625 11.4375 -6.332031 11.4375 -4.28125 C 11.4375 -2.882812 10.882812 -1.785156 9.78125 -0.984375 C 8.675781 -0.191406 7.144531 0.203125 5.1875 0.203125 C 4.382812 0.203125 3.640625 0.144531 2.953125 0.03125 C 2.265625 -0.0820312 1.519531 -0.296875 0.71875 -0.609375 L 0.71875 -3.96875 C 1.375 -3.632812 2.039062 -3.382812 2.71875 -3.21875 C 3.40625 -3.0625 4.035156 -2.984375 4.609375 -2.984375 C 5.492188 -2.984375 6.140625 -3.109375 6.546875 -3.359375 C 6.953125 -3.609375 7.15625 -4 7.15625 -4.53125 C 7.15625 -4.9375 7.046875 -5.25 6.828125 -5.46875 C 6.617188 -5.695312 6.28125 -5.867188 5.8125 -5.984375 C 5.34375 -6.097656 4.726562 -6.15625 3.96875 -6.15625 L 3.046875 -6.15625 L 3.046875 -9.203125 L 3.984375 -9.203125 C 6.046875 -9.203125 7.078125 -9.726562 7.078125 -10.78125 C 7.078125 -11.175781 6.921875 -11.46875 6.609375 -11.65625 C 6.304688 -11.851562 5.898438 -11.953125 5.390625 -11.953125 C 4.429688 -11.953125 3.441406 -11.628906 2.421875 -10.984375 L 0.734375 -13.6875 C 1.523438 -14.238281 2.335938 -14.628906 3.171875 -14.859375 C 4.003906 -15.085938 4.957031 -15.203125 6.03125 -15.203125 C 7.582031 -15.203125 8.796875 -14.894531 9.671875 -14.28125 C 10.554688 -13.664062 11 -12.816406 11 -11.734375 Z M 11 -11.734375 "/></g></g><g transform="translate(329.253387, 238.486302)"><g><path d="M 0.71875 -6.34375 C 0.71875 -8.425781 1.015625 -10.113281 1.609375 -11.40625 C 2.210938 -12.707031 3.097656 -13.664062 4.265625 -14.28125 C 5.429688 -14.894531 6.867188 -15.203125 8.578125 -15.203125 C 9.179688 -15.203125 9.890625 -15.144531 10.703125 -15.03125 L 10.703125 -11.859375 C 10.023438 -11.992188 9.285156 -12.0625 8.484375 -12.0625 C 7.128906 -12.0625 6.117188 -11.765625 5.453125 -11.171875 C 4.785156 -10.578125 4.425781 -9.601562 4.375 -8.25 L 4.484375 -8.25 C 5.109375 -9.414062 6.097656 -10 7.453125 -10 C 8.785156 -10 9.816406 -9.566406 10.546875 -8.703125 C 11.285156 -7.847656 11.65625 -6.65625 11.65625 -5.125 C 11.65625 -3.476562 11.191406 -2.175781 10.265625 -1.21875 C 9.335938 -0.269531 8.039062 0.203125 6.375 0.203125 C 4.601562 0.203125 3.21875 -0.367188 2.21875 -1.515625 C 1.21875 -2.660156 0.71875 -4.269531 0.71875 -6.34375 Z M 6.28125 -3 C 6.707031 -3 7.054688 -3.160156 7.328125 -3.484375 C 7.597656 -3.816406 7.734375 -4.335938 7.734375 -5.046875 C 7.734375 -6.265625 7.257812 -6.875 6.3125 -6.875 C 5.851562 -6.875 5.476562 -6.710938 5.1875 -6.390625 C 4.894531 -6.078125 4.75 -5.695312 4.75 -5.25 C 4.75 -4.59375 4.890625 -4.050781 5.171875 -3.625 C 5.453125 -3.207031 5.820312 -3 6.28125 -3 Z M 6.28125 -3 "/></g></g></g><g fill="rgb(0%, 0%, 0%)" fill-opacity="1"><g transform="translate(403.877096, 193.644376)"><g><path d="M 11.984375 -2.90625 L 10.34375 -2.90625 L 10.34375 0 L 6.34375 0 L 6.34375 -2.90625 L 0.359375 -2.90625 L 0.359375 -5.875 L 6.59375 -14.984375 L 10.34375 -14.984375 L 10.34375 -5.921875 L 11.984375 -5.921875 Z M 6.34375 -5.921875 L 6.34375 -7.671875 C 6.34375 -7.992188 6.351562 -8.429688 6.375 -8.984375 C 6.394531 -9.546875 6.410156 -9.84375 6.421875 -9.875 L 6.3125 -9.875 C 6.082031 -9.34375 5.820312 -8.847656 5.53125 -8.390625 L 3.859375 -5.921875 Z M 6.34375 -5.921875 "/></g></g><g transform="translate(416.181783, 193.644376)"><g><path d="M 9.65625 0 L 5.546875 0 L 5.546875 -7.9375 C 5.546875 -8.894531 5.566406 -9.773438 5.609375 -10.578125 C 5.359375 -10.273438 5.046875 -9.957031 4.671875 -9.625 L 2.96875 -8.21875 L 0.859375 -10.796875 L 6.015625 -14.984375 L 9.65625 -14.984375 Z M 9.65625 0 "/></g></g></g><g fill="rgb(0%, 0%, 0%)" fill-opacity="1"><g transform="translate(490.231754, 92.072478)"><g><path d="M 0.71875 -6.34375 C 0.71875 -8.425781 1.015625 -10.113281 1.609375 -11.40625 C 2.210938 -12.707031 3.097656 -13.664062 4.265625 -14.28125 C 5.429688 -14.894531 6.867188 -15.203125 8.578125 -15.203125 C 9.179688 -15.203125 9.890625 -15.144531 10.703125 -15.03125 L 10.703125 -11.859375 C 10.023438 -11.992188 9.285156 -12.0625 8.484375 -12.0625 C 7.128906 -12.0625 6.117188 -11.765625 5.453125 -11.171875 C 4.785156 -10.578125 4.425781 -9.601562 4.375 -8.25 L 4.484375 -8.25 C 5.109375 -9.414062 6.097656 -10 7.453125 -10 C 8.785156 -10 9.816406 -9.566406 10.546875 -8.703125 C 11.285156 -7.847656 11.65625 -6.65625 11.65625 -5.125 C 11.65625 -3.476562 11.191406 -2.175781 10.265625 -1.21875 C 9.335938 -0.269531 8.039062 0.203125 6.375 0.203125 C 4.601562 0.203125 3.21875 -0.367188 2.21875 -1.515625 C 1.21875 -2.660156 0.71875 -4.269531 0.71875 -6.34375 Z M 6.28125 -3 C 6.707031 -3 7.054688 -3.160156 7.328125 -3.484375 C 7.597656 -3.816406 7.734375 -4.335938 7.734375 -5.046875 C 7.734375 -6.265625 7.257812 -6.875 6.3125 -6.875 C 5.851562 -6.875 5.476562 -6.710938 5.1875 -6.390625 C 4.894531 -6.078125 4.75 -5.695312 4.75 -5.25 C 4.75 -4.59375 4.890625 -4.050781 5.171875 -3.625 C 5.453125 -3.207031 5.820312 -3 6.28125 -3 Z M 6.28125 -3 "/></g></g><g transform="translate(502.536441, 92.072478)"><g><path d="M 11.5 0 L 0.625 0 L 0.625 -2.671875 L 4.28125 -6.375 C 5.332031 -7.46875 6.015625 -8.210938 6.328125 -8.609375 C 6.648438 -9.003906 6.875 -9.34375 7 -9.625 C 7.132812 -9.914062 7.203125 -10.222656 7.203125 -10.546875 C 7.203125 -10.929688 7.070312 -11.234375 6.8125 -11.453125 C 6.5625 -11.679688 6.207031 -11.796875 5.75 -11.796875 C 5.28125 -11.796875 4.800781 -11.660156 4.3125 -11.390625 C 3.832031 -11.128906 3.289062 -10.734375 2.6875 -10.203125 L 0.46875 -12.8125 C 1.238281 -13.5 1.882812 -13.988281 2.40625 -14.28125 C 2.9375 -14.582031 3.507812 -14.8125 4.125 -14.96875 C 4.75 -15.125 5.445312 -15.203125 6.21875 -15.203125 C 7.1875 -15.203125 8.050781 -15.03125 8.8125 -14.6875 C 9.570312 -14.351562 10.160156 -13.867188 10.578125 -13.234375 C 11.003906 -12.597656 11.21875 -11.890625 11.21875 -11.109375 C 11.21875 -10.515625 11.144531 -9.96875 11 -9.46875 C 10.851562 -8.96875 10.625 -8.476562 10.3125 -8 C 10.007812 -7.519531 9.601562 -7.015625 9.09375 -6.484375 C 8.582031 -5.953125 7.492188 -4.941406 5.828125 -3.453125 L 5.828125 -3.34375 L 11.5 -3.34375 Z M 11.5 0 "/></g></g></g><g fill="rgb(0%, 0%, 0%)" fill-opacity="1"><g transform="translate(581.562932, 50.549999)"><g><path d="M 2.140625 0 L 7.296875 -11.625 L 0.796875 -11.625 L 0.796875 -14.96875 L 11.625 -14.96875 L 11.625 -12.578125 L 6.34375 0 Z M 2.140625 0 "/></g></g><g transform="translate(593.867619, 50.549999)"><g><path d="M 6.1875 -15.203125 C 7.769531 -15.203125 9 -14.882812 9.875 -14.25 C 10.757812 -13.613281 11.203125 -12.710938 11.203125 -11.546875 C 11.203125 -10.753906 10.992188 -10.054688 10.578125 -9.453125 C 10.160156 -8.859375 9.503906 -8.335938 8.609375 -7.890625 C 9.722656 -7.265625 10.503906 -6.640625 10.953125 -6.015625 C 11.410156 -5.390625 11.640625 -4.710938 11.640625 -3.984375 C 11.640625 -2.648438 11.15625 -1.617188 10.1875 -0.890625 C 9.226562 -0.160156 7.882812 0.203125 6.15625 0.203125 C 4.382812 0.203125 3.03125 -0.148438 2.09375 -0.859375 C 1.164062 -1.578125 0.703125 -2.609375 0.703125 -3.953125 C 0.703125 -4.816406 0.910156 -5.550781 1.328125 -6.15625 C 1.742188 -6.769531 2.441406 -7.328125 3.421875 -7.828125 C 2.628906 -8.367188 2.050781 -8.941406 1.6875 -9.546875 C 1.320312 -10.160156 1.140625 -10.832031 1.140625 -11.5625 C 1.140625 -12.71875 1.585938 -13.613281 2.484375 -14.25 C 3.378906 -14.882812 4.613281 -15.203125 6.1875 -15.203125 Z M 4.40625 -4.109375 C 4.40625 -3.679688 4.554688 -3.335938 4.859375 -3.078125 C 5.160156 -2.828125 5.578125 -2.703125 6.109375 -2.703125 C 7.316406 -2.703125 7.921875 -3.144531 7.921875 -4.03125 C 7.921875 -4.363281 7.785156 -4.691406 7.515625 -5.015625 C 7.253906 -5.335938 6.785156 -5.703125 6.109375 -6.109375 C 5.503906 -5.785156 5.066406 -5.460938 4.796875 -5.140625 C 4.535156 -4.816406 4.40625 -4.472656 4.40625 -4.109375 Z M 6.171875 -12.28125 C 5.828125 -12.28125 5.535156 -12.175781 5.296875 -11.96875 C 5.054688 -11.769531 4.9375 -11.515625 4.9375 -11.203125 C 4.9375 -10.609375 5.332031 -10.085938 6.125 -9.640625 C 6.613281 -9.921875 6.945312 -10.175781 7.125 -10.40625 C 7.300781 -10.632812 7.390625 -10.898438 7.390625 -11.203125 C 7.390625 -11.523438 7.269531 -11.785156 7.03125 -11.984375 C 6.789062 -12.179688 6.503906 -12.28125 6.171875 -12.28125 Z M 6.171875 -12.28125 "/></g></g></g><g fill="rgb(0%, 0%, 0%)" fill-opacity="1"><g transform="translate(670.773782, 168.594378)"><g><path d="M 6.8125 -9.828125 C 7.664062 -9.828125 8.441406 -9.625 9.140625 -9.21875 C 9.835938 -8.820312 10.378906 -8.253906 10.765625 -7.515625 C 11.148438 -6.785156 11.34375 -5.945312 11.34375 -5 C 11.34375 -3.320312 10.835938 -2.035156 9.828125 -1.140625 C 8.816406 -0.242188 7.289062 0.203125 5.25 0.203125 C 3.5 0.203125 2.070312 -0.0664062 0.96875 -0.609375 L 0.96875 -3.921875 C 1.5625 -3.648438 2.234375 -3.425781 2.984375 -3.25 C 3.734375 -3.070312 4.375 -2.984375 4.90625 -2.984375 C 5.664062 -2.984375 6.242188 -3.140625 6.640625 -3.453125 C 7.046875 -3.773438 7.25 -4.25 7.25 -4.875 C 7.25 -5.445312 7.039062 -5.894531 6.625 -6.21875 C 6.21875 -6.539062 5.597656 -6.703125 4.765625 -6.703125 C 4.128906 -6.703125 3.441406 -6.582031 2.703125 -6.34375 L 1.21875 -7.078125 L 1.78125 -14.984375 L 10.34375 -14.984375 L 10.34375 -11.625 L 5.234375 -11.625 L 5.046875 -9.640625 C 5.578125 -9.742188 5.953125 -9.800781 6.171875 -9.8125 C 6.398438 -9.820312 6.613281 -9.828125 6.8125 -9.828125 Z M 6.8125 -9.828125 "/></g></g><g transform="translate(683.078469, 168.594378)"><g><path d="M 11.5625 -7.46875 C 11.5625 -4.820312 11.117188 -2.878906 10.234375 -1.640625 C 9.347656 -0.410156 7.988281 0.203125 6.15625 0.203125 C 4.363281 0.203125 3.007812 -0.4375 2.09375 -1.71875 C 1.1875 -3.007812 0.734375 -4.925781 0.734375 -7.46875 C 0.734375 -10.132812 1.175781 -12.085938 2.0625 -13.328125 C 2.957031 -14.578125 4.320312 -15.203125 6.15625 -15.203125 C 7.9375 -15.203125 9.28125 -14.554688 10.1875 -13.265625 C 11.101562 -11.972656 11.5625 -10.039062 11.5625 -7.46875 Z M 4.765625 -7.46875 C 4.765625 -5.78125 4.867188 -4.617188 5.078125 -3.984375 C 5.296875 -3.347656 5.65625 -3.03125 6.15625 -3.03125 C 6.65625 -3.03125 7.007812 -3.359375 7.21875 -4.015625 C 7.425781 -4.671875 7.53125 -5.820312 7.53125 -7.46875 C 7.53125 -9.132812 7.425781 -10.300781 7.21875 -10.96875 C 7.007812 -11.632812 6.65625 -11.96875 6.15625 -11.96875 C 5.65625 -11.96875 5.296875 -11.644531 5.078125 -11 C 4.867188 -10.351562 4.765625 -9.175781 4.765625 -7.46875 Z M 4.765625 -7.46875 "/></g></g></g><g fill="rgb(0%, 0%, 0%)" fill-opacity="1"><g transform="translate(759.984633, 136.675815)"><g><path d="M 6.8125 -9.828125 C 7.664062 -9.828125 8.441406 -9.625 9.140625 -9.21875 C 9.835938 -8.820312 10.378906 -8.253906 10.765625 -7.515625 C 11.148438 -6.785156 11.34375 -5.945312 11.34375 -5 C 11.34375 -3.320312 10.835938 -2.035156 9.828125 -1.140625 C 8.816406 -0.242188 7.289062 0.203125 5.25 0.203125 C 3.5 0.203125 2.070312 -0.0664062 0.96875 -0.609375 L 0.96875 -3.921875 C 1.5625 -3.648438 2.234375 -3.425781 2.984375 -3.25 C 3.734375 -3.070312 4.375 -2.984375 4.90625 -2.984375 C 5.664062 -2.984375 6.242188 -3.140625 6.640625 -3.453125 C 7.046875 -3.773438 7.25 -4.25 7.25 -4.875 C 7.25 -5.445312 7.039062 -5.894531 6.625 -6.21875 C 6.21875 -6.539062 5.597656 -6.703125 4.765625 -6.703125 C 4.128906 -6.703125 3.441406 -6.582031 2.703125 -6.34375 L 1.21875 -7.078125 L 1.78125 -14.984375 L 10.34375 -14.984375 L 10.34375 -11.625 L 5.234375 -11.625 L 5.046875 -9.640625 C 5.578125 -9.742188 5.953125 -9.800781 6.171875 -9.8125 C 6.398438 -9.820312 6.613281 -9.828125 6.8125 -9.828125 Z M 6.8125 -9.828125 "/></g></g><g transform="translate(772.289319, 136.675815)"><g><path d="M 11.984375 -2.90625 L 10.34375 -2.90625 L 10.34375 0 L 6.34375 0 L 6.34375 -2.90625 L 0.359375 -2.90625 L 0.359375 -5.875 L 6.59375 -14.984375 L 10.34375 -14.984375 L 10.34375 -5.921875 L 11.984375 -5.921875 Z M 6.34375 -5.921875 L 6.34375 -7.671875 C 6.34375 -7.992188 6.351562 -8.429688 6.375 -8.984375 C 6.394531 -9.546875 6.410156 -9.84375 6.421875 -9.875 L 6.3125 -9.875 C 6.082031 -9.34375 5.820312 -8.847656 5.53125 -8.390625 L 3.859375 -5.921875 Z M 6.34375 -5.921875 "/></g></g></g></svg>