<svg xmlns="http://www.w3.org/2000/svg" width="1440" viewBox="0 0 1440 810" height="810" version="1.0"><defs><clipPath id="a"><path d="M 724 22.738281 L 728 22.738281 L 728 81 L 724 81 Z M 724 22.738281"/></clipPath><clipPath id="b"><path d="M 291.246094 503 L 1115.496094 503 L 1115.496094 604.738281 L 291.246094 604.738281 Z M 291.246094 503"/></clipPath></defs><path fill="#FFF" d="M 373.035156 167.28125 L 373.035156 158.722656 C 373.035156 158.722656 384.914062 147.398438 386.019531 147.398438 C 387.128906 147.398438 397.070312 154.300781 398.175781 156.507812 C 399.28125 158.71875 399.558594 167.554688 399.558594 167.554688 Z M 373.035156 167.28125"/><path fill="#FFF" d="M 373.957031 177.402344 C 373.957031 177.402344 387.953125 170.589844 398.632812 178.140625 L 399.925781 192.867188 C 399.925781 192.867188 385.191406 188.820312 372.664062 194.335938 Z M 373.957031 177.402344"/><path fill="#FFF" d="M 373.773438 206.121094 C 373.953125 205.570312 389.421875 197.285156 400.476562 205.753906 L 403.972656 281.046875 L 371.011719 281.046875 Z M 373.773438 206.121094"/><path fill="#FFF" d="M 367.785156 196.691406 C 367.785156 196.691406 388.921875 188.40625 405.910156 197.519531 L 406.183594 202.902344 C 406.183594 202.902344 386.296875 195.308594 369.582031 204.007812 Z M 367.785156 196.691406"/><path fill="#FFF" d="M 365.714844 282.152344 L 409.640625 282.429688 L 409.640625 289.746094 L 365.851562 289.054688 L 365.574219 282.5625 Z M 365.714844 282.152344"/><path fill="#FFF" d="M 369.90625 295.957031 C 370.085938 295.402344 389.238281 286.203125 404.527344 296.324219 L 407.65625 357.070312 L 413.734375 358.175781 L 413.367188 367.378906 L 407.105469 369.40625 C 407.105469 369.40625 392.554688 359.097656 369.71875 369.222656 L 363.089844 365.90625 L 363.273438 358.914062 L 369.535156 359.097656 Z M 369.90625 295.957031"/><path fill="#FFF" d="M 730.742188 56.621094 C 730.742188 56.308594 730.710938 55.996094 730.648438 55.691406 C 730.589844 55.382812 730.496094 55.082031 730.375 54.792969 C 730.253906 54.503906 730.105469 54.226562 729.929688 53.96875 C 729.753906 53.707031 729.554688 53.464844 729.328125 53.242188 C 729.105469 53.019531 728.859375 52.824219 728.597656 52.648438 C 728.332031 52.472656 728.054688 52.328125 727.757812 52.207031 C 727.464844 52.085938 727.164062 51.996094 726.851562 51.933594 C 726.539062 51.871094 726.222656 51.84375 725.90625 51.84375 C 725.589844 51.84375 725.273438 51.871094 724.960938 51.933594 C 724.648438 51.996094 724.347656 52.085938 724.054688 52.207031 C 723.757812 52.328125 723.480469 52.472656 723.214844 52.648438 C 722.953125 52.824219 722.707031 53.019531 722.484375 53.242188 C 722.257812 53.464844 722.058594 53.707031 721.882812 53.96875 C 721.707031 54.226562 721.558594 54.503906 721.4375 54.792969 C 721.316406 55.082031 721.222656 55.382812 721.164062 55.691406 C 721.101562 55.996094 721.070312 56.308594 721.074219 56.621094 C 721.070312 56.933594 721.101562 57.246094 721.164062 57.554688 C 721.222656 57.859375 721.316406 58.160156 721.4375 58.449219 C 721.558594 58.738281 721.707031 59.015625 721.882812 59.277344 C 722.058594 59.535156 722.257812 59.777344 722.484375 60 C 722.707031 60.222656 722.953125 60.421875 723.214844 60.59375 C 723.480469 60.769531 723.757812 60.917969 724.054688 61.035156 C 724.347656 61.15625 724.648438 61.246094 724.960938 61.308594 C 725.273438 61.371094 725.589844 61.402344 725.90625 61.402344 C 726.222656 61.402344 726.539062 61.371094 726.851562 61.308594 C 727.164062 61.246094 727.464844 61.15625 727.757812 61.035156 C 728.054688 60.917969 728.332031 60.769531 728.597656 60.59375 C 728.859375 60.421875 729.105469 60.222656 729.328125 60 C 729.554688 59.777344 729.753906 59.535156 729.929688 59.277344 C 730.105469 59.015625 730.253906 58.738281 730.375 58.449219 C 730.496094 58.160156 730.589844 57.859375 730.648438 57.554688 C 730.710938 57.246094 730.742188 56.933594 730.742188 56.621094"/><path fill="#FFF" d="M 729.542969 67.34375 C 729.542969 66.859375 729.453125 66.394531 729.277344 65.945312 C 729.097656 65.5 728.84375 65.101562 728.511719 64.757812 C 728.183594 64.417969 727.800781 64.152344 727.371094 63.96875 C 726.9375 63.78125 726.488281 63.6875 726.023438 63.6875 C 725.554688 63.6875 725.105469 63.78125 724.675781 63.96875 C 724.242188 64.152344 723.863281 64.417969 723.53125 64.757812 C 723.203125 65.101562 722.945312 65.5 722.769531 65.945312 C 722.589844 66.394531 722.5 66.859375 722.5 67.34375 C 722.5 67.832031 722.589844 68.296875 722.769531 68.746094 C 722.945312 69.191406 723.203125 69.589844 723.53125 69.929688 C 723.863281 70.273438 724.242188 70.539062 724.675781 70.722656 C 725.105469 70.910156 725.554688 71.003906 726.023438 71.003906 C 726.488281 71.003906 726.9375 70.910156 727.371094 70.722656 C 727.800781 70.539062 728.183594 70.273438 728.511719 69.929688 C 728.84375 69.589844 729.097656 69.191406 729.277344 68.746094 C 729.453125 68.296875 729.542969 67.832031 729.542969 67.34375"/><path fill="#FFF" d="M 729.3125 40.84375 C 729.3125 40.414062 729.226562 40 729.058594 39.601562 C 728.890625 39.203125 728.652344 38.855469 728.339844 38.550781 C 728.03125 38.246094 727.671875 38.011719 727.265625 37.847656 C 726.859375 37.683594 726.4375 37.597656 725.996094 37.597656 C 725.558594 37.597656 725.132812 37.683594 724.726562 37.847656 C 724.320312 38.011719 723.964844 38.246094 723.652344 38.550781 C 723.34375 38.855469 723.101562 39.203125 722.933594 39.601562 C 722.765625 40 722.683594 40.414062 722.683594 40.84375 C 722.683594 41.273438 722.765625 41.6875 722.933594 42.085938 C 723.101562 42.484375 723.34375 42.832031 723.652344 43.136719 C 723.964844 43.441406 724.320312 43.675781 724.726562 43.839844 C 725.132812 44.003906 725.558594 44.089844 725.996094 44.089844 C 726.4375 44.089844 726.859375 44.003906 727.265625 43.839844 C 727.671875 43.675781 728.03125 43.441406 728.339844 43.136719 C 728.652344 42.832031 728.890625 42.484375 729.058594 42.085938 C 729.226562 41.6875 729.3125 41.273438 729.3125 40.84375"/><path fill="#FFF" d="M 728.636719 27.59375 C 728.636719 27.167969 728.566406 26.761719 728.429688 26.371094 C 728.289062 25.976562 728.089844 25.632812 727.832031 25.332031 C 727.574219 25.03125 727.277344 24.800781 726.941406 24.640625 C 726.605469 24.476562 726.253906 24.398438 725.890625 24.398438 C 725.523438 24.398438 725.175781 24.476562 724.835938 24.640625 C 724.5 24.800781 724.203125 25.03125 723.945312 25.332031 C 723.6875 25.632812 723.488281 25.976562 723.351562 26.371094 C 723.210938 26.761719 723.140625 27.167969 723.140625 27.59375 C 723.140625 28.015625 723.210938 28.425781 723.351562 28.816406 C 723.488281 29.207031 723.6875 29.554688 723.945312 29.851562 C 724.203125 30.152344 724.5 30.382812 724.835938 30.546875 C 725.175781 30.707031 725.523438 30.789062 725.890625 30.789062 C 726.253906 30.789062 726.605469 30.707031 726.941406 30.546875 C 727.277344 30.382812 727.574219 30.152344 727.832031 29.851562 C 728.089844 29.554688 728.289062 29.207031 728.429688 28.816406 C 728.566406 28.425781 728.636719 28.015625 728.636719 27.59375"/><g clip-path="url(#a)"><path fill="#FFF" d="M 724.699219 22.867188 L 727.1875 22.867188 L 727.1875 80.164062 L 724.699219 80.164062 Z M 724.699219 22.867188"/></g><path fill="#FFF" d="M 687.6875 104.050781 C 687.6875 104.050781 722.082031 80.855469 726.085938 72.984375 C 726.085938 72.984375 760.207031 98.390625 765.730469 100.1875 C 771.253906 101.980469 766.558594 102.117188 766.558594 102.117188 C 766.558594 102.117188 742.941406 91.898438 687.6875 104.050781 Z M 687.6875 104.050781"/><path fill="#FFF" d="M 640.265625 209.621094 C 640.082031 209.070312 637.132812 186.796875 637.132812 186.796875 C 637.132812 186.796875 637.136719 165.628906 642.476562 155.320312 C 647.8125 145.007812 655.367188 133.597656 661.8125 127.335938 C 668.257812 121.082031 687.964844 107.273438 690.910156 104.878906 C 693.859375 102.488281 757.214844 99.175781 763.472656 104.328125 C 769.734375 109.484375 780.785156 115.554688 784.285156 119.054688 C 787.785156 122.554688 799.757812 129.734375 803.625 136.542969 C 807.492188 143.351562 813.015625 150.164062 814.675781 158.082031 C 816.332031 165.996094 818.359375 174.648438 818.171875 183.484375 C 817.984375 192.320312 818.171875 196.371094 817.433594 202.816406 C 816.699219 209.257812 816.144531 209.625 815.597656 211.097656 C 815.042969 212.570312 806.386719 204.285156 797.914062 202.074219 C 789.441406 199.867188 765.316406 200.050781 761.265625 199.683594 C 757.210938 199.316406 741.925781 198.023438 734.375 198.207031 C 726.824219 198.394531 697.726562 200.601562 692.753906 200.96875 C 687.78125 201.339844 661.996094 203.734375 656.472656 205.390625 C 650.945312 207.046875 640.265625 209.992188 640.265625 209.992188 Z M 640.265625 209.621094"/><path fill="#FFF" d="M 827.015625 365.714844 L 860.902344 365.714844 L 860.535156 341.046875 C 860.535156 341.046875 851.695312 334.050781 846.171875 332.945312 C 840.644531 331.839844 829.59375 344.363281 827.015625 346.9375 C 824.4375 349.511719 827.015625 365.714844 827.015625 365.714844 Z M 827.015625 365.714844"/><path fill="#FFF" d="M 892.664062 366.371094 L 914.488281 366.648438 L 914.488281 330.753906 C 914.488281 330.753906 910.898438 322.191406 909.789062 321.089844 C 908.683594 319.988281 891.554688 354.222656 892.664062 366.371094 Z M 892.664062 366.371094"/><path fill="#FFF" d="M 809.792969 246.25 C 809.597656 246.617188 809.375 233.828125 811.171875 230.925781 C 812.972656 228.03125 830.371094 211.183594 835.347656 207.738281 L 835.898438 188.824219 L 837.144531 188.546875 L 838.246094 207.738281 C 838.246094 207.738281 857.445312 217.261719 862.144531 225.824219 C 866.839844 234.382812 866.5625 243.355469 866.703125 245.976562 C 866.839844 248.597656 812.277344 241.5625 809.792969 246.25 Z M 809.792969 246.25"/><path fill="#FFF" d="M 542.929688 262.683594 C 542.929688 262.269531 543.070312 240.039062 543.070312 240.039062 C 543.070312 240.039062 541.410156 239.765625 541.136719 239.210938 C 540.859375 238.65625 541.964844 233.96875 544.175781 231.484375 C 546.386719 229 550.945312 237.144531 550.808594 239.351562 C 550.667969 241.5625 547.214844 239.90625 547.214844 239.90625 L 546.9375 262.960938 Z M 542.929688 262.683594"/><path fill="#FFF" d="M 554.394531 263.648438 L 558.816406 263.648438 L 558.261719 254.8125 L 560.058594 254.679688 C 560.058594 254.679688 556.882812 248.050781 556.464844 246.667969 C 556.050781 245.289062 551.492188 253.574219 551.773438 254.539062 C 552.050781 255.5 554.394531 255.367188 554.394531 255.367188 Z M 554.394531 263.648438"/><path fill="#FFF" d="M 653.707031 233.550781 C 653.707031 233.550781 744.039062 218.089844 803.433594 231.34375 L 803.433594 248.460938 L 654.257812 252.597656 Z M 653.707031 233.550781"/><path fill="#FFF" d="M 681.886719 291.8125 L 682.441406 340.6875 L 686.03125 341.242188 C 686.03125 341.242188 689.898438 327.710938 692.664062 325.226562 C 695.425781 322.742188 722.773438 308.933594 727.195312 305.34375 C 731.617188 301.75 728.851562 304.238281 728.851562 304.238281 C 728.851562 304.238281 752.613281 315.558594 758.410156 318.597656 C 764.210938 321.636719 771.117188 331.574219 772.5 335.441406 L 773.882812 339.304688 L 776.09375 338.757812 L 776.09375 290.707031 Z M 681.886719 291.8125"/><path fill="#FFF" d="M 717.25 365.8125 C 717.25 365.8125 732.71875 361.117188 736.585938 356.972656 C 740.453125 352.828125 745.429688 356.144531 748.1875 357.25 C 750.949219 358.355469 772.5 370.230469 772.5 370.230469 L 775.539062 371.332031 L 774.984375 436.773438 L 697.359375 437.875 L 696.804688 389.832031 C 696.804688 389.832031 698.738281 380.449219 703.433594 375.753906 C 708.132812 371.058594 716.417969 366.082031 717.25 365.8125 Z M 717.25 365.8125"/><path fill="#FFF" d="M 810.066406 260.796875 L 809.882812 281.96875 L 816.328125 281.414062 C 816.328125 281.414062 814.855469 261.53125 816.328125 260.425781 C 817.796875 259.320312 810.066406 260.796875 810.066406 260.796875 Z M 810.066406 260.796875"/><path fill="#FFF" d="M 824.988281 281.046875 L 831.984375 281.230469 L 831.617188 266.136719 C 831.617188 266.136719 835.117188 259.140625 838.984375 258.039062 C 842.847656 256.9375 845.058594 262.269531 846.535156 265.03125 C 848.011719 267.792969 847.457031 281.230469 847.457031 281.230469 L 854.089844 281.414062 L 854.273438 271.109375 L 859.613281 271.660156 C 859.613281 271.660156 854.273438 258.035156 852.0625 257.113281 C 849.851562 256.1875 827.199219 256.933594 827.199219 256.933594 C 827.199219 256.933594 823.332031 260.058594 821.492188 260.058594 C 819.652344 260.058594 824.621094 265.953125 824.992188 267.425781 C 825.359375 268.894531 824.988281 281.046875 824.988281 281.046875 Z M 824.988281 281.046875"/><path fill="#FFF" d="M 867.347656 264.664062 C 867.164062 264.113281 867.347656 281.230469 867.347656 281.230469 L 860.714844 281.414062 L 861.082031 272.394531 C 861.082031 272.394531 867.527344 265.214844 867.347656 264.664062 Z M 867.347656 264.664062"/><path fill="#FFF" d="M 876.554688 249.941406 L 871.027344 255.828125 L 873.421875 256.5625 L 874.15625 282.152344 L 878.394531 282.152344 L 878.210938 260.980469 L 878.210938 256.007812 L 881.34375 255.457031 Z M 876.554688 249.941406"/><path fill="#FFF" d="M 808.964844 284.355469 L 877.476562 283.257812 C 877.476562 283.257812 917.070312 287.675781 918.730469 289.511719 C 920.386719 291.355469 921.125 293.933594 921.125 293.933594 L 807.304688 293.191406 L 806.757812 284.546875 Z M 808.964844 284.355469"/><path fill="#FFF" d="M 1059.257812 155.125 L 1059.257812 146.566406 C 1059.257812 146.566406 1071.136719 135.242188 1072.242188 135.242188 C 1073.347656 135.242188 1083.292969 142.152344 1084.398438 144.359375 C 1085.503906 146.566406 1085.78125 155.402344 1085.78125 155.402344 Z M 1059.257812 155.125"/><path fill="#FFF" d="M 1060.164062 165.253906 C 1060.164062 165.253906 1074.164062 158.4375 1084.84375 165.984375 L 1086.132812 180.710938 C 1086.132812 180.710938 1071.402344 176.660156 1058.878906 182.1875 Z M 1060.164062 165.253906"/><path fill="#FFF" d="M 1059.992188 193.972656 C 1060.175781 193.417969 1075.644531 185.136719 1086.695312 193.605469 L 1090.191406 268.898438 L 1057.226562 268.898438 Z M 1059.992188 193.972656"/><path fill="#FFF" d="M 1054.007812 184.539062 C 1054.007812 184.539062 1075.144531 176.257812 1092.132812 185.371094 L 1092.410156 190.753906 C 1092.410156 190.753906 1072.519531 183.164062 1055.804688 191.859375 Z M 1054.007812 184.539062"/><path fill="#FFF" d="M 1051.929688 270 L 1095.851562 270.277344 L 1095.851562 277.589844 L 1052.066406 276.90625 L 1051.789062 270.414062 Z M 1051.929688 270"/><path fill="#FFF" d="M 1056.121094 283.808594 C 1056.304688 283.257812 1075.457031 274.050781 1090.742188 284.175781 L 1093.871094 344.925781 L 1099.949219 346.03125 L 1099.582031 355.230469 L 1093.320312 357.253906 C 1093.320312 357.253906 1078.769531 346.949219 1055.933594 357.070312 L 1049.300781 353.761719 L 1049.488281 346.765625 L 1055.75 346.949219 Z M 1056.121094 283.808594"/><path fill="#FFF" d="M 1055.011719 360.929688 C 1055.011719 360.929688 1077.296875 350.808594 1094.976562 361.296875 L 1101.976562 499.730469 C 1101.976562 499.730469 1073.246094 468.621094 1067.167969 466.410156 C 1061.09375 464.199219 1048.566406 462.914062 1048.199219 462.914062 C 1047.828125 462.914062 1052.253906 458.125 1052.253906 458.125 L 1055.015625 361.300781 L 1055.015625 360.929688 Z M 1055.011719 360.929688"/><path fill="#FFF" d="M 976.234375 241.421875 L 975.957031 239.078125 L 980.65625 239.078125 C 980.65625 239.078125 980.242188 231.898438 980.378906 231.34375 C 980.515625 230.792969 988.945312 223.472656 988.945312 223.472656 L 989.632812 212.429688 L 990.875 212.566406 L 991.707031 223.890625 C 991.707031 223.890625 1001.097656 228.03125 1001.234375 237.421875 C 1001.375 246.8125 1001.234375 238.523438 1001.234375 238.523438 L 1005.101562 238.9375 L 1005.242188 240.59375 C 1005.242188 240.59375 978.445312 240.867188 976.234375 241.421875 Z M 976.234375 241.421875"/><path fill="#FFF" d="M 980.371094 243.351562 C 980.371094 243.351562 995.011719 240.3125 1000.746094 243.417969 L 1001.160156 258.121094 L 980.027344 258.328125 Z M 980.371094 243.351562"/><path fill="#FFF" d="M 975.679688 259.785156 C 975.679688 259.785156 1004.132812 258.542969 1005.242188 259.855469 L 1005.308594 262.058594 L 1001.167969 265.03125 L 1003.167969 323.5 L 978.445312 323.980469 L 979.964844 269.515625 L 980.101562 266.546875 L 977.546875 263.921875 L 976.09375 263.234375 Z M 975.679688 259.785156"/><path fill="#FFF" d="M 974.09375 325.429688 C 974.09375 325.429688 1008.210938 324.398438 1009.039062 325.503906 L 1008.691406 331.160156 L 1004.410156 332.125 L 1006.207031 384.175781 L 977.546875 384.109375 L 978.511719 332.125 L 974.371094 330.953125 L 974.164062 325.636719"/><path fill="#FFF" d="M 601.222656 395.5 C 602.464844 395.78125 612.824219 382.523438 618.761719 383.902344 C 624.703125 385.28125 636.578125 396.882812 636.578125 396.882812 C 636.578125 396.882812 637.683594 410.410156 636.578125 409.996094 C 635.476562 409.585938 623.734375 402.539062 623.320312 403.511719 C 622.90625 404.484375 618.898438 406.410156 614.894531 407.238281 C 610.890625 408.066406 605.777344 415.523438 605.777344 415.523438 L 605.777344 434.347656 L 650.210938 433.46875 L 648.367188 284.363281 L 582.433594 285.097656 L 536.023438 290.253906 L 538.601562 435.675781 L 600.011719 434.464844 L 601.222656 395.503906 Z M 561.074219 317.863281 C 566.597656 316.757812 569.910156 325.59375 572.492188 328.542969 C 575.070312 331.484375 572.492188 343.269531 572.492188 343.269531 L 565.492188 336.640625 C 565.492188 336.640625 558.863281 334.429688 557.390625 334.0625 C 555.914062 333.691406 550.023438 331.484375 550.023438 331.484375 C 550.023438 331.484375 555.546875 318.964844 561.074219 317.863281 Z M 573.871094 410.960938 C 573.871094 410.960938 571.660156 406.410156 568.484375 404.613281 C 565.304688 402.816406 561.851562 404.058594 558.261719 402.539062 C 554.675781 401.019531 551.492188 396.605469 551.492188 396.605469 C 551.492188 396.605469 555.914062 389.011719 561.160156 386.25 C 561.160156 386.25 570.554688 390.253906 572.902344 396.191406 C 575.25 402.132812 573.871094 410.960938 573.871094 410.960938 Z M 599.378906 329.644531 C 600.484375 321.914062 618.53125 313.8125 618.53125 313.8125 C 631.054688 320.4375 636.214844 330.378906 636.214844 330.378906 C 636.214844 330.378906 636.949219 342.527344 635.847656 342.160156 C 634.742188 341.792969 630.691406 334.792969 622.585938 335.898438 C 614.480469 337.003906 604.535156 349.890625 604.535156 349.890625 L 604.167969 369.039062 L 599.382812 368.300781 C 599.378906 368.300781 598.273438 337.371094 599.378906 329.644531 Z M 599.378906 329.644531"/><path fill="#FFF" d="M 660.890625 271.933594 L 662.550781 416.621094 L 670.011719 417.726562 L 674.152344 284.085938 L 784.652344 283.808594 L 786.863281 370.785156 L 791.007812 377.964844 C 791.007812 377.964844 791.558594 404.75 790.730469 406.679688 C 789.898438 408.613281 794.324219 414.964844 794.324219 414.964844 L 796.535156 414.691406 L 796.808594 271.105469 Z M 660.890625 271.933594"/><path fill="#FFF" d="M 657.023438 426.5625 L 656.75 435.125 L 679.679688 435.675781 L 680.230469 427.117188 Z M 657.023438 426.5625"/><path fill="#FFF" d="M 781.613281 425.734375 L 804.820312 424.90625 L 804.820312 433.464844 L 781.613281 434.296875 Z M 781.613281 425.734375"/><path fill="#FFF" d="M 812.832031 426.5625 L 820.011719 426.289062 L 820.289062 434.019531 L 812.832031 434.296875 Z M 812.832031 426.5625"/><path fill="#FFF" d="M 806.476562 298.992188 L 807.582031 431.535156 L 809.515625 432.085938 L 810.621094 298.992188 Z M 806.476562 298.992188"/><path fill="#FFF" d="M 885.753906 286.574219 L 903.988281 259.792969 L 924.429688 260.621094 L 924.429688 294.859375 Z M 885.753906 286.574219"/><path fill="#FFF" d="M 619.183594 191.851562 L 621.671875 191.988281 L 622.082031 210.078125 L 618.769531 210.078125 Z M 619.183594 191.851562"/><path fill="#FFF" d="M 592.519531 251.222656 L 592.65625 235.351562 C 592.65625 235.351562 619.871094 210.085938 620.28125 207.460938 C 620.695312 204.835938 621.109375 207.601562 621.109375 207.601562 C 621.109375 207.601562 640.722656 222.507812 644.589844 228.722656 L 648.460938 234.9375 L 648.183594 250.949219 Z M 592.519531 251.222656"/><path fill="#FFF" d="M 646.527344 261.578125 L 646.386719 258.125 L 648.738281 258.125 L 648.324219 252.464844 L 591.554688 252.601562 C 591.554688 252.601562 586.578125 253.707031 584.921875 255.777344 L 592.519531 262.539062 L 592.65625 282.976562 L 648.597656 282.835938 L 648.460938 261.710938 Z M 627.601562 281.046875 L 612.40625 281.183594 C 612.40625 281.183594 612.269531 270.414062 612.40625 268.621094 C 612.542969 266.824219 619.3125 260.886719 619.3125 260.886719 C 624.980469 261.855469 626.914062 268.070312 626.914062 268.070312 C 626.914062 268.070312 624.703125 266.410156 622.492188 265.996094 C 620.28125 265.582031 615.859375 269.308594 615.859375 269.308594 L 616.277344 272.621094 L 628.015625 272.757812 Z M 627.601562 281.046875"/><path fill="#FFF" d="M 534.644531 264.542969 L 539.339844 255.296875 L 542.726562 263.582031 L 542.585938 262.542969 L 558.746094 263.238281 L 559.160156 269.3125 L 567.585938 277.386719 L 567.929688 282.21875 L 571.039062 284.355469 L 571.175781 287.121094 L 556.398438 290.296875 L 536.371094 291.746094 L 536.992188 266.476562 C 536.992188 266.476562 534.78125 265.167969 534.644531 264.542969 Z M 534.644531 264.542969"/><path fill="#FFF" d="M 583.261719 253.023438 C 583.261719 253.023438 578.796875 258.863281 578.796875 259.417969 C 578.796875 259.972656 578.84375 260.476562 578.84375 260.476562 L 581.144531 260.570312 L 581.101562 286.890625 L 585.566406 287.074219 L 585.703125 260.472656 C 585.703125 260.472656 587.546875 259.96875 587.777344 259.785156 C 588.007812 259.597656 583.3125 253.066406 583.261719 253.023438 Z M 583.261719 253.023438"/><path fill="#FFF" d="M 924.4375 297.613281 L 926.925781 431.257812 L 915.875 431.535156 L 918.082031 302.859375 L 919.742188 299.542969 Z M 924.4375 297.613281"/><path fill="#FFF" d="M 914.214844 308.65625 L 915.046875 301.753906 L 878.304688 298.992188 L 879.960938 433.1875 L 888.800781 433.1875 L 888.25 378.519531 L 914.214844 378.796875 L 913.664062 370.785156 L 887.695312 369.40625 L 887.144531 324.121094 C 887.144531 324.121094 897.640625 314.734375 899.574219 314.457031 C 901.507812 314.183594 901.507812 308.382812 901.507812 308.382812 Z M 914.214844 308.65625"/><path fill="#FFF" d="M 911.460938 393.433594 C 911.460938 393.433594 892.675781 414.417969 893.78125 432.917969 L 912.84375 432.917969 Z M 911.460938 393.433594"/><path fill="#FFF" d="M 827.746094 434.015625 L 862.554688 432.359375 L 862.277344 408.613281 C 862.277344 408.613281 849.570312 402.8125 846.253906 401.984375 C 842.941406 401.152344 828.296875 412.203125 827.746094 415.515625 C 827.195312 418.832031 827.746094 434.015625 827.746094 434.015625 Z M 827.746094 434.015625"/><path fill="#FFF" d="M 823.054688 378.242188 C 822.503906 379.070312 823.605469 395.914062 823.605469 395.914062 C 823.605469 395.914062 837.144531 382.382812 842.113281 382.382812 C 842.113281 382.382812 859.796875 389.839844 861.726562 394.253906 L 863.109375 377.964844 Z M 823.054688 378.242188"/><path fill="#FFF" d="M 823.597656 326.058594 C 823.597656 326.058594 838.792969 313.355469 842.9375 312.804688 C 847.082031 312.253906 860.066406 321.917969 861.167969 324.675781 C 862.273438 327.433594 862.550781 307.832031 862.550781 307.832031 L 821.664062 307.554688 Z M 823.597656 326.058594"/><path fill="#FFF" d="M 913.390625 233.917969 L 917.257812 233.917969 L 917.257812 267.605469 L 913.390625 267.605469 Z M 913.390625 233.917969"/><path fill="#FFF" d="M 901.230469 251.683594 L 903.996094 251.683594 L 903.996094 267.328125 L 901.230469 267.328125 Z M 901.230469 251.683594"/><path fill="#FFF" d="M 902.796875 252.328125 C 902.796875 252.328125 898.929688 251.589844 898.5625 250.945312 C 898.191406 250.300781 902.890625 246.25 903.167969 245.148438 C 903.441406 244.050781 907.035156 250.300781 907.222656 250.761719 C 907.402344 251.222656 902.796875 252.328125 902.796875 252.328125 Z M 902.796875 252.328125"/><path fill="#FFF" d="M 915.136719 235.488281 C 915.136719 235.488281 911.269531 234.75 910.902344 234.105469 C 910.53125 233.460938 915.226562 229.414062 915.503906 228.308594 C 915.78125 227.203125 919.375 233.460938 919.558594 233.921875 C 919.742188 234.382812 915.136719 235.488281 915.136719 235.488281 Z M 915.136719 235.488281"/><path fill="#FFF" d="M 921.308594 261.074219 C 921.308594 261.074219 917.441406 260.335938 917.070312 259.695312 C 916.703125 259.046875 921.402344 254.996094 921.675781 253.894531 C 921.953125 252.792969 925.542969 259.046875 925.730469 259.507812 C 925.910156 259.96875 921.308594 261.074219 921.308594 261.074219 Z M 921.308594 261.074219"/><g clip-path="url(#b)"><path fill="#FFF" d="M 689.773438 604.65625 L 726.457031 504.515625 C 725.929688 505.300781 705.230469 548.839844 678.753906 604.65625 Z M 803.808594 503.78125 L 774.34375 505.253906 L 945.371094 604.65625 L 1115.46875 604.65625 C 1067.820312 589.699219 803.820312 503.78125 803.820312 503.78125 Z M 646.898438 504.515625 L 291.210938 604.65625 L 457.941406 604.65625 L 679.320312 506.726562 L 646.90625 504.515625 Z M 646.898438 504.515625"/></g><path fill="#FFF" d="M 367.308594 425.703125 C 376.605469 418.285156 384.632812 409.292969 395.132812 408.339844 C 403.011719 407.625 407.511719 405.75 410.316406 404.140625 L 408.761719 373.457031 C 391.082031 362.960938 368.800781 373.085938 368.800781 373.085938 L 368.800781 373.457031 Z M 367.308594 425.703125"/><path fill="#FFF" d="M 972.507812 458.875 C 972.683594 459.570312 972.648438 458.9375 972.457031 457.570312 C 972.417969 458.09375 972.425781 458.542969 972.507812 458.875 Z M 932.730469 455.925781 L 932.53125 455.582031 C 926.710938 467.285156 932.730469 455.925781 932.730469 455.925781 Z M 717.617188 500.84375 L 717.4375 500.84375 C 717.019531 506.199219 717.617188 500.84375 717.617188 500.84375 Z M 1004.921875 392.601562 C 1003.445312 388.921875 977.664062 391.867188 977.664062 391.867188 L 976.925781 434.574219 L 487.957031 439.722656 L 487.589844 396.285156 L 491.824219 393.523438 L 491.640625 388.550781 L 486.484375 388 L 484.640625 339.03125 L 489.796875 335.351562 L 488.878906 329.644531 L 483.351562 328.910156 L 480.773438 272.765625 L 485.5625 268.710938 L 485.929688 263.375 L 481.507812 263.929688 C 481.507812 263.929688 481.691406 262.640625 481.507812 261.355469 C 481.324219 260.070312 481.691406 260.429688 481.507812 259.511719 C 481.324219 258.59375 481.691406 247.542969 481.691406 247.542969 L 486.113281 246.070312 L 485.195312 243.496094 L 481.878906 243.128906 L 481.695312 241.839844 C 480.40625 236.316406 470.644531 228.039062 470.644531 228.039062 C 461.070312 234.289062 459.777344 244.046875 459.777344 244.046875 L 455.910156 245.523438 L 456.464844 250.121094 L 460.699219 251.226562 L 461.25 263.5625 L 457.382812 264.296875 L 457.566406 267.980469 L 460.882812 273.136719 L 459.59375 329.648438 L 455.359375 329.464844 L 455.171875 335.539062 L 458.671875 337.933594 L 457.9375 388.921875 L 454.253906 389.109375 L 454.4375 393.15625 L 458.121094 396.839844 L 457.566406 440.648438 L 459.5 442.03125 L 463.035156 445.367188 C 469.316406 455.574219 473.964844 468.339844 472.308594 482.792969 C 473.039062 481.671875 473.40625 477.277344 473.035156 474.703125 C 472.671875 472.128906 475.984375 469.921875 476.722656 468.8125 C 477.460938 467.707031 476.355469 463.660156 475.617188 460.71875 C 474.878906 457.773438 474.878906 453.71875 474.878906 450.777344 C 474.878906 448.398438 477.769531 446.015625 480.042969 444.410156 L 483.832031 444.199219 C 485.78125 446.074219 487.773438 450.039062 487.773438 450.039062 L 488.507812 454.824219 L 489.984375 462.183594 L 488.878906 475.441406 L 492.5625 472.125 L 495.878906 468.074219 C 495.878906 468.074219 494.773438 459.238281 494.402344 457.398438 C 494.03125 455.558594 495.140625 449.300781 495.140625 449.300781 C 495.140625 449.300781 498.824219 444.515625 499.929688 444.148438 C 501.035156 443.777344 505.453125 443.78125 507.296875 444.148438 C 509.136719 444.511719 511.347656 451.140625 511.347656 451.140625 L 510.980469 463.289062 L 510.613281 478.386719 L 521.296875 477.652344 C 521.296875 477.652344 521.660156 472.492188 521.660156 469.917969 C 521.660156 467.34375 522.03125 461.082031 522.769531 458.132812 C 523.503906 455.191406 529.03125 451.878906 530.503906 452.242188 C 531.976562 452.609375 536.027344 457.398438 537.132812 456.664062 C 538.242188 455.929688 541.921875 451.878906 545.238281 457.03125 C 548.558594 462.183594 546.34375 467.339844 546.34375 467.339844 L 552.605469 467.710938 C 552.605469 467.710938 553.34375 463.65625 558.128906 459.238281 C 562.914062 454.820312 566.601562 460.34375 566.601562 460.34375 L 569.550781 473.230469 L 564.757812 493.480469 L 571.761719 503.417969 L 585.386719 503.050781 C 585.386719 503.050781 585.019531 478.015625 585.753906 472.125 C 586.488281 466.234375 588.699219 456.292969 594.59375 460.34375 C 600.488281 464.398438 599.75 476.175781 599.75 476.175781 L 600.855469 503.785156 L 671.945312 500.472656 L 717.441406 500.84375 C 717.488281 500.242188 717.546875 499.519531 717.621094 498.632812 C 718.355469 489.796875 728.671875 491.269531 728.671875 491.269531 C 736.773438 491.269531 738.984375 500.105469 738.984375 500.105469 L 812.652344 496.425781 L 812.652344 503.789062 L 859.0625 501.578125 C 859.0625 501.578125 856.851562 492.007812 858.328125 469.914062 C 859.800781 447.824219 872.324219 464.023438 872.324219 464.023438 C 874.535156 449.296875 882.636719 456.660156 882.636719 456.660156 C 885.582031 444.882812 911.371094 455.921875 911.371094 455.921875 C 919.5625 434.761719 930.921875 452.835938 932.539062 455.582031 L 933.46875 453.714844 C 940.832031 438.984375 948.203125 449.296875 948.9375 445.613281 C 949.675781 441.933594 964.410156 441.199219 967.355469 441.199219 C 969.605469 441.199219 971.851562 453.195312 972.460938 457.570312 C 972.785156 453.402344 976.851562 443.816406 982.085938 441.199219 C 987.984375 438.253906 990.929688 456.660156 990.929688 456.660156 L 997.558594 452.984375 C 997.558594 452.984375 1000.507812 438.988281 1002.714844 436.78125 C 1004.925781 434.574219 1007.136719 433.101562 1007.136719 433.101562 C 1007.136719 433.101562 1006.394531 396.28125 1004.921875 392.601562 Z M 1004.921875 392.601562"/><g fill="#FFF"><g><g><path d="M 103.710938 2.3125 C 124.882812 2.3125 140.535156 -14.054688 140.535156 -37.359375 C 140.535156 -54.96875 130.574219 -68.667969 116.164062 -68.667969 C 104.601562 -68.667969 97.128906 -59.949219 97.128906 -49.988281 C 97.128906 -40.382812 105.136719 -32.910156 113.316406 -32.910156 C 115.273438 -32.910156 117.230469 -33.445312 118.476562 -34.15625 L 118.476562 -35.757812 C 113.496094 -35.046875 110.292969 -38.78125 110.292969 -44.117188 C 110.292969 -49.453125 114.386719 -55.324219 121.679688 -55.324219 C 130.394531 -55.324219 135.730469 -48.210938 135.730469 -39.3125 C 135.730469 -28.285156 126.660156 -20.101562 114.917969 -20.101562 C 91.4375 -20.101562 85.386719 -47.675781 75.78125 -67.242188 L 76.851562 -68.667969 C 96.417969 -61.375 120.433594 -75.425781 120.433594 -95.171875 C 120.433594 -112.785156 105.667969 -124.523438 78.273438 -124.523438 L 4.089844 -124.523438 L 4.089844 -122.390625 C 7.828125 -117.941406 10.851562 -102.109375 10.851562 -75.78125 L 10.851562 -48.742188 C 10.851562 -22.59375 7.828125 -6.582031 4.089844 -2.132812 L 4.089844 0 L 51.945312 0 L 51.945312 -2.132812 C 48.210938 -6.582031 44.472656 -22.59375 44.472656 -48.742188 L 44.472656 -120.613281 L 63.6875 -120.613281 C 83.964844 -120.613281 92.328125 -108.335938 92.328125 -93.570312 C 92.328125 -80.941406 81.652344 -74.003906 72.757812 -74.179688 C 71.511719 -79.339844 66.886719 -81.652344 63.507812 -81.652344 C 58.527344 -81.652344 55.324219 -78.804688 55.324219 -74.894531 C 55.324219 -70.445312 58.703125 -67.242188 63.6875 -67.242188 C 65.285156 -67.242188 67.421875 -68.132812 68.488281 -69.199219 L 70.089844 -68.132812 C 68.3125 -58.703125 63.6875 -48.742188 64.042969 -35.402344 C 64.929688 -13.519531 79.164062 2.3125 103.710938 2.3125 Z M 103.710938 2.3125" transform="translate(287.996 755.647)"/></g></g></g><g fill="#FFF"><g><g><path d="M 63.6875 2.3125 C 90.015625 2.3125 106.023438 -10.496094 106.023438 -27.394531 C 106.023438 -39.3125 97.484375 -48.921875 85.210938 -48.921875 C 72.046875 -48.921875 64.753906 -40.027344 64.753906 -29.707031 C 64.753906 -26.863281 65.820312 -22.238281 67.421875 -20.28125 L 69.378906 -20.457031 C 68.132812 -25.261719 72.222656 -30.597656 79.164062 -30.597656 C 85.386719 -30.597656 90.371094 -25.972656 90.371094 -18.144531 C 90.371094 -8.714844 82.71875 -1.777344 70.269531 -1.777344 C 47.140625 -1.777344 31.308594 -22.769531 31.308594 -51.410156 C 31.308594 -52.300781 31.308594 -53.011719 31.488281 -53.722656 C 66.710938 -49.097656 103 -53.191406 103 -74.359375 C 103 -88.769531 88.769531 -100.152344 59.417969 -100.152344 C 25.261719 -100.152344 3.203125 -79.875 3.203125 -48.921875 C 3.203125 -16.011719 33.265625 2.3125 63.6875 2.3125 Z M 31.488281 -57.28125 C 33.089844 -81.296875 45.363281 -96.238281 60.839844 -96.238281 C 75.25 -96.238281 81.476562 -87.703125 81.652344 -77.207031 C 81.652344 -61.730469 59.59375 -54.96875 31.488281 -57.28125 Z M 31.488281 -57.28125" transform="translate(430.661 755.647)"/></g></g></g><g fill="#FFF"><g><g><path d="M 48.386719 2.3125 C 73.46875 2.3125 94.285156 -7.472656 94.285156 -27.929688 C 94.285156 -62.796875 33.976562 -61.730469 33.976562 -82.542969 C 33.976562 -90.546875 40.558594 -96.238281 54.96875 -96.238281 C 69.023438 -96.238281 79.164062 -84.320312 82.007812 -72.582031 L 83.609375 -72.582031 L 86.632812 -93.214844 C 79.164062 -96.238281 64.574219 -100.152344 48.03125 -100.152344 C 27.574219 -100.152344 8.539062 -92.859375 8.539062 -74.359375 C 8.539062 -44.828125 66.53125 -51.410156 66.53125 -21.347656 C 66.53125 -8.894531 54.433594 -1.246094 43.050781 -1.246094 C 28.105469 -1.246094 19.746094 -8.539062 19.746094 -17.433594 C 19.746094 -24.371094 24.195312 -29.175781 30.953125 -29.175781 C 37 -29.175781 41.449219 -25.4375 40.914062 -20.636719 L 42.871094 -20.636719 C 43.761719 -22.058594 44.472656 -24.726562 44.472656 -26.683594 C 44.472656 -35.222656 35.933594 -43.226562 24.371094 -43.226562 C 11.917969 -43.226562 2.3125 -35.222656 2.3125 -22.949219 C 2.3125 -8.003906 18.144531 2.3125 48.386719 2.3125 Z M 48.386719 2.3125" transform="translate(539.884 755.647)"/></g></g></g><g fill="#FFF"><g><g><path d="M 63.6875 2.3125 C 90.015625 2.3125 106.023438 -10.496094 106.023438 -27.394531 C 106.023438 -39.3125 97.484375 -48.921875 85.210938 -48.921875 C 72.046875 -48.921875 64.753906 -40.027344 64.753906 -29.707031 C 64.753906 -26.863281 65.820312 -22.238281 67.421875 -20.28125 L 69.378906 -20.457031 C 68.132812 -25.261719 72.222656 -30.597656 79.164062 -30.597656 C 85.386719 -30.597656 90.371094 -25.972656 90.371094 -18.144531 C 90.371094 -8.714844 82.71875 -1.777344 70.269531 -1.777344 C 47.140625 -1.777344 31.308594 -22.769531 31.308594 -51.410156 C 31.308594 -52.300781 31.308594 -53.011719 31.488281 -53.722656 C 66.710938 -49.097656 103 -53.191406 103 -74.359375 C 103 -88.769531 88.769531 -100.152344 59.417969 -100.152344 C 25.261719 -100.152344 3.203125 -79.875 3.203125 -48.921875 C 3.203125 -16.011719 33.265625 2.3125 63.6875 2.3125 Z M 31.488281 -57.28125 C 33.089844 -81.296875 45.363281 -96.238281 60.839844 -96.238281 C 75.25 -96.238281 81.476562 -87.703125 81.652344 -77.207031 C 81.652344 -61.730469 59.59375 -54.96875 31.488281 -57.28125 Z M 31.488281 -57.28125" transform="translate(636.476 755.647)"/></g></g></g><g fill="#FFF"><g><g><path d="M 4.449219 0 L 43.941406 0 L 43.941406 -1.957031 C 40.738281 -6.402344 38.070312 -22.058594 38.070312 -47.851562 L 38.070312 -50.164062 C 38.070312 -71.335938 51.234375 -89.480469 65.285156 -89.480469 C 77.207031 -89.480469 84.675781 -81.832031 84.675781 -71.15625 C 84.675781 -63.152344 78.804688 -56.214844 70.980469 -56.214844 C 62.085938 -56.214844 56.214844 -65.820312 61.730469 -71.511719 L 60.128906 -72.046875 C 57.105469 -69.734375 54.96875 -65.285156 54.96875 -60.484375 C 54.96875 -47.675781 66.175781 -38.070312 80.050781 -38.070312 C 99.265625 -38.070312 110.648438 -50.523438 110.648438 -68.132812 C 110.648438 -86.457031 96.953125 -100.152344 76.136719 -100.152344 C 58.882812 -100.152344 46.429688 -90.015625 40.203125 -74.179688 L 38.070312 -74.179688 L 38.070312 -100.507812 L 36.289062 -100.507812 C 28.640625 -95.171875 15.121094 -92.503906 4.089844 -92.148438 L 4.089844 -90.371094 C 6.9375 -87.703125 9.605469 -81.296875 10.140625 -64.574219 L 10.140625 -47.851562 C 10.140625 -22.058594 7.648438 -6.402344 4.449219 -1.957031 Z M 4.449219 0" transform="translate(745.699 755.647)"/></g></g></g><g fill="#FFF"><g><g><path d="M 37.714844 0 L 60.304688 0 L 79.164062 -55.148438 C 87.703125 -80.941406 97.308594 -91.4375 102.820312 -95.527344 L 102.820312 -97.664062 L 82.71875 -97.664062 L 82.71875 -95.527344 C 85.03125 -91.082031 83.253906 -81.296875 75.070312 -55.148438 L 64.398438 -24.195312 L 62.441406 -24.195312 L 51.765625 -55.148438 C 43.761719 -81.296875 44.472656 -91.082031 46.964844 -95.527344 L 46.964844 -97.664062 L 0.535156 -97.664062 L 0.535156 -95.527344 C 8.539062 -91.082031 15.296875 -68.3125 19.925781 -55.148438 Z M 37.714844 0" transform="translate(858.657 755.647)"/></g></g></g><g fill="#FFF"><g><g><path d="M 63.6875 2.3125 C 90.015625 2.3125 106.023438 -10.496094 106.023438 -27.394531 C 106.023438 -39.3125 97.484375 -48.921875 85.210938 -48.921875 C 72.046875 -48.921875 64.753906 -40.027344 64.753906 -29.707031 C 64.753906 -26.863281 65.820312 -22.238281 67.421875 -20.28125 L 69.378906 -20.457031 C 68.132812 -25.261719 72.222656 -30.597656 79.164062 -30.597656 C 85.386719 -30.597656 90.371094 -25.972656 90.371094 -18.144531 C 90.371094 -8.714844 82.71875 -1.777344 70.269531 -1.777344 C 47.140625 -1.777344 31.308594 -22.769531 31.308594 -51.410156 C 31.308594 -52.300781 31.308594 -53.011719 31.488281 -53.722656 C 66.710938 -49.097656 103 -53.191406 103 -74.359375 C 103 -88.769531 88.769531 -100.152344 59.417969 -100.152344 C 25.261719 -100.152344 3.203125 -79.875 3.203125 -48.921875 C 3.203125 -16.011719 33.265625 2.3125 63.6875 2.3125 Z M 31.488281 -57.28125 C 33.089844 -81.296875 45.363281 -96.238281 60.839844 -96.238281 C 75.25 -96.238281 81.476562 -87.703125 81.652344 -77.207031 C 81.652344 -61.730469 59.59375 -54.96875 31.488281 -57.28125 Z M 31.488281 -57.28125" transform="translate(962.01 755.647)"/></g></g></g><g fill="#FFF"><g><g><path d="M 49.453125 2.3125 C 66.710938 2.3125 78.628906 -6.9375 78.628906 -20.28125 C 78.628906 -32.019531 70.445312 -38.957031 61.550781 -38.957031 C 53.367188 -38.957031 47.496094 -32.019531 47.496094 -23.304688 C 47.496094 -19.925781 48.566406 -16.722656 49.277344 -15.296875 L 50.699219 -15.296875 C 49.988281 -21.347656 53.367188 -25.972656 58.171875 -25.972656 C 63.152344 -25.972656 67.242188 -21.703125 67.242188 -14.765625 C 67.242188 -6.582031 62.085938 -1.246094 54.792969 -1.246094 C 45.71875 -1.246094 39.847656 -11.03125 39.847656 -23.660156 L 39.847656 -93.925781 L 72.9375 -93.925781 L 72.9375 -97.664062 L 39.492188 -97.664062 L 39.492188 -126.660156 L 37.535156 -126.660156 C 34.332031 -111.539062 23.660156 -97.664062 4.089844 -97.664062 L -3.558594 -97.664062 L -3.558594 -93.925781 L 11.742188 -93.925781 L 11.742188 -34.332031 C 11.742188 -8.183594 27.394531 2.3125 49.453125 2.3125 Z M 49.453125 2.3125" transform="translate(1071.232 755.647)"/></g></g></g></svg>