<svg xmlns="http://www.w3.org/2000/svg" xmlns:xlink="http://www.w3.org/1999/xlink" width="375" zoomAndPan="magnify" viewBox="0 0 375 374.999991" height="374.999991" preserveAspectRatio="xMidYMid meet" version="1.0"><defs><clipPath id="id1"><path d="M 35 37.5 L 339 37.5 L 339 340 L 35 340 Z M 35 37.5 " clip-rule="nonzero"/></clipPath></defs><g clip-path="url(#id1)"><path fill="rgb(0%, 0%, 0%)" d="M 186.632812 36.632812 C 184.15625 36.636719 181.679688 36.699219 179.203125 36.824219 C 176.726562 36.949219 174.257812 37.132812 171.789062 37.378906 C 169.324219 37.625 166.867188 37.929688 164.414062 38.296875 C 161.960938 38.664062 159.523438 39.089844 157.089844 39.574219 C 154.660156 40.058594 152.242188 40.605469 149.839844 41.207031 C 147.4375 41.8125 145.046875 42.476562 142.675781 43.195312 C 140.304688 43.917969 137.953125 44.695312 135.621094 45.53125 C 133.289062 46.371094 130.976562 47.261719 128.6875 48.210938 C 126.398438 49.160156 124.132812 50.167969 121.894531 51.226562 C 119.652344 52.289062 117.441406 53.402344 115.253906 54.574219 C 113.070312 55.742188 110.914062 56.964844 108.789062 58.238281 C 106.664062 59.515625 104.570312 60.839844 102.511719 62.21875 C 100.449219 63.597656 98.425781 65.023438 96.433594 66.5 C 94.441406 67.976562 92.488281 69.503906 90.574219 71.074219 C 88.660156 72.648438 86.78125 74.265625 84.945312 75.929688 C 83.109375 77.59375 81.316406 79.304688 79.5625 81.054688 C 77.808594 82.808594 76.101562 84.601562 74.4375 86.441406 C 72.773438 88.277344 71.152344 90.152344 69.582031 92.066406 C 68.007812 93.984375 66.484375 95.9375 65.007812 97.925781 C 63.53125 99.917969 62.101562 101.941406 60.726562 104.003906 C 59.347656 106.0625 58.019531 108.15625 56.746094 110.28125 C 55.472656 112.40625 54.25 114.5625 53.078125 116.75 C 51.910156 118.933594 50.796875 121.148438 49.734375 123.386719 C 48.671875 125.625 47.667969 127.890625 46.71875 130.179688 C 45.769531 132.46875 44.875 134.78125 44.039062 137.113281 C 43.203125 139.449219 42.425781 141.800781 41.703125 144.171875 C 40.980469 146.542969 40.320312 148.929688 39.714844 151.332031 C 39.109375 153.738281 38.566406 156.15625 38.082031 158.585938 C 37.59375 161.015625 37.167969 163.457031 36.804688 165.90625 C 36.4375 168.359375 36.132812 170.816406 35.886719 173.285156 C 35.640625 175.75 35.457031 178.222656 35.332031 180.695312 C 35.207031 183.171875 35.144531 185.648438 35.140625 188.128906 C 35.140625 190.605469 35.203125 193.085938 35.324219 195.5625 C 35.445312 198.039062 35.628906 200.507812 35.871094 202.976562 C 36.113281 205.445312 36.417969 207.902344 36.78125 210.355469 C 37.144531 212.808594 37.566406 215.25 38.050781 217.683594 C 38.535156 220.113281 39.078125 222.53125 39.679688 224.9375 C 40.28125 227.34375 40.945312 229.730469 41.664062 232.105469 C 42.382812 234.476562 43.160156 236.832031 43.996094 239.164062 C 44.832031 241.5 45.722656 243.8125 46.671875 246.101562 C 47.621094 248.394531 48.625 250.660156 49.6875 252.898438 C 50.746094 255.140625 51.859375 257.355469 53.027344 259.542969 C 54.199219 261.726562 55.417969 263.882812 56.695312 266.011719 C 57.96875 268.136719 59.292969 270.230469 60.671875 272.292969 C 62.050781 274.355469 63.476562 276.382812 64.953125 278.371094 C 66.429688 280.363281 67.957031 282.316406 69.527344 284.234375 C 71.101562 286.152344 72.71875 288.027344 74.386719 289.863281 C 76.050781 291.703125 77.757812 293.496094 79.511719 295.25 C 81.265625 297.003906 83.058594 298.710938 84.898438 300.378906 C 86.734375 302.042969 88.609375 303.660156 90.527344 305.234375 C 92.445312 306.808594 94.398438 308.332031 96.390625 309.808594 C 98.382812 311.285156 100.40625 312.710938 102.46875 314.089844 C 104.53125 315.46875 106.625 316.792969 108.75 318.066406 C 110.878906 319.34375 113.035156 320.566406 115.21875 321.734375 C 117.40625 322.902344 119.621094 324.015625 121.863281 325.078125 C 124.105469 326.136719 126.371094 327.140625 128.660156 328.089844 C 130.949219 329.039062 133.261719 329.929688 135.597656 330.765625 C 137.933594 331.601562 140.285156 332.378906 142.65625 333.097656 C 145.03125 333.816406 147.417969 334.480469 149.824219 335.082031 C 152.230469 335.683594 154.648438 336.226562 157.078125 336.710938 C 159.511719 337.195312 161.953125 337.617188 164.40625 337.980469 C 166.859375 338.34375 169.316406 338.648438 171.785156 338.890625 C 174.253906 339.136719 176.722656 339.316406 179.199219 339.4375 C 181.675781 339.5625 184.15625 339.621094 186.632812 339.621094 C 189.113281 339.621094 191.589844 339.5625 194.066406 339.4375 C 196.542969 339.316406 199.015625 339.136719 201.484375 338.890625 C 203.949219 338.648438 206.410156 338.347656 208.863281 337.980469 C 211.316406 337.617188 213.757812 337.195312 216.1875 336.710938 C 218.621094 336.226562 221.039062 335.683594 223.445312 335.082031 C 225.847656 334.480469 228.238281 333.816406 230.609375 333.097656 C 232.984375 332.378906 235.335938 331.601562 237.671875 330.765625 C 240.003906 329.929688 242.316406 329.039062 244.609375 328.089844 C 246.898438 327.140625 249.164062 326.136719 251.40625 325.078125 C 253.648438 324.015625 255.859375 322.902344 258.046875 321.734375 C 260.234375 320.566406 262.390625 319.34375 264.515625 318.066406 C 266.644531 316.792969 268.738281 315.46875 270.800781 314.089844 C 272.859375 312.710938 274.886719 311.285156 276.878906 309.808594 C 278.871094 308.332031 280.824219 306.808594 282.742188 305.234375 C 284.65625 303.660156 286.535156 302.042969 288.371094 300.378906 C 290.207031 298.710938 292.003906 297.003906 293.757812 295.25 C 295.507812 293.496094 297.21875 291.703125 298.882812 289.863281 C 300.546875 288.027344 302.167969 286.152344 303.742188 284.234375 C 305.3125 282.316406 306.839844 280.363281 308.316406 278.371094 C 309.792969 276.382812 311.21875 274.355469 312.597656 272.292969 C 313.972656 270.230469 315.300781 268.136719 316.574219 266.011719 C 317.847656 263.882812 319.070312 261.726562 320.238281 259.542969 C 321.410156 257.355469 322.523438 255.140625 323.582031 252.898438 C 324.644531 250.660156 325.648438 248.394531 326.597656 246.101562 C 327.542969 243.8125 328.4375 241.5 329.273438 239.164062 C 330.109375 236.832031 330.886719 234.476562 331.605469 232.105469 C 332.324219 229.730469 332.984375 227.34375 333.585938 224.9375 C 334.191406 222.53125 334.734375 220.113281 335.21875 217.683594 C 335.699219 215.25 336.125 212.808594 336.488281 210.355469 C 336.851562 207.902344 337.15625 205.445312 337.398438 202.976562 C 337.640625 200.507812 337.824219 198.039062 337.945312 195.5625 C 338.066406 193.085938 338.128906 190.605469 338.128906 188.128906 C 338.125 185.648438 338.0625 183.171875 337.9375 180.695312 C 337.8125 178.222656 337.628906 175.75 337.382812 173.285156 C 337.136719 170.816406 336.832031 168.359375 336.464844 165.90625 C 336.101562 163.457031 335.675781 161.015625 335.1875 158.585938 C 334.703125 156.15625 334.15625 153.738281 333.554688 151.332031 C 332.949219 148.929688 332.285156 146.542969 331.566406 144.171875 C 330.84375 141.800781 330.066406 139.449219 329.230469 137.113281 C 328.394531 134.78125 327.5 132.46875 326.550781 130.179688 C 325.601562 127.890625 324.59375 125.625 323.535156 123.386719 C 322.472656 121.148438 321.359375 118.933594 320.1875 116.75 C 319.019531 114.5625 317.796875 112.40625 316.523438 110.28125 C 315.246094 108.15625 313.921875 106.0625 312.542969 104.003906 C 311.164062 101.941406 309.738281 99.917969 308.261719 97.925781 C 306.785156 95.9375 305.261719 93.984375 303.6875 92.066406 C 302.113281 90.152344 300.496094 88.277344 298.832031 86.441406 C 297.167969 84.601562 295.457031 82.808594 293.707031 81.054688 C 291.953125 79.304688 290.160156 77.59375 288.324219 75.929688 C 286.484375 74.265625 284.609375 72.648438 282.695312 71.074219 C 280.777344 69.503906 278.824219 67.976562 276.835938 66.5 C 274.84375 65.023438 272.820312 63.597656 270.757812 62.21875 C 268.699219 60.839844 266.605469 59.515625 264.480469 58.238281 C 262.355469 56.964844 260.199219 55.742188 258.011719 54.574219 C 255.828125 53.402344 253.617188 52.289062 251.375 51.226562 C 249.136719 50.167969 246.871094 49.160156 244.582031 48.210938 C 242.292969 47.261719 239.980469 46.371094 237.648438 45.53125 C 235.316406 44.695312 232.960938 43.917969 230.589844 43.195312 C 228.21875 42.476562 225.832031 41.8125 223.429688 41.207031 C 221.023438 40.605469 218.609375 40.058594 216.175781 39.574219 C 213.746094 39.089844 211.304688 38.664062 208.855469 38.296875 C 206.402344 37.929688 203.945312 37.625 201.476562 37.378906 C 199.011719 37.132812 196.539062 36.949219 194.066406 36.824219 C 191.589844 36.699219 189.113281 36.636719 186.632812 36.632812 Z M 186.632812 101.558594 C 188.335938 101.558594 190.03125 101.644531 191.726562 101.808594 C 193.417969 101.976562 195.097656 102.226562 196.765625 102.558594 C 198.4375 102.890625 200.085938 103.304688 201.710938 103.796875 C 203.339844 104.289062 204.941406 104.863281 206.511719 105.515625 C 208.082031 106.164062 209.617188 106.890625 211.117188 107.691406 C 212.621094 108.496094 214.078125 109.367188 215.492188 110.3125 C 216.90625 111.257812 218.269531 112.269531 219.585938 113.351562 C 220.898438 114.429688 222.160156 115.570312 223.363281 116.773438 C 224.566406 117.976562 225.707031 119.234375 226.785156 120.550781 C 227.863281 121.863281 228.875 123.230469 229.820312 124.644531 C 230.765625 126.058594 231.640625 127.515625 232.441406 129.015625 C 233.242188 130.515625 233.96875 132.050781 234.621094 133.625 C 235.273438 135.195312 235.84375 136.796875 236.339844 138.421875 C 236.832031 140.050781 237.246094 141.699219 237.578125 143.367188 C 237.910156 145.035156 238.15625 146.71875 238.324219 148.410156 C 238.492188 150.101562 238.574219 151.800781 238.574219 153.5 C 238.574219 155.203125 238.492188 156.898438 238.324219 158.59375 C 238.15625 160.285156 237.910156 161.964844 237.578125 163.632812 C 237.246094 165.300781 236.832031 166.949219 236.339844 168.578125 C 235.84375 170.207031 235.273438 171.804688 234.621094 173.378906 C 233.96875 174.949219 233.242188 176.484375 232.441406 177.984375 C 231.640625 179.484375 230.765625 180.941406 229.820312 182.359375 C 228.875 183.773438 227.863281 185.136719 226.785156 186.453125 C 225.707031 187.765625 224.566406 189.027344 223.363281 190.226562 C 222.160156 191.429688 220.898438 192.574219 219.585938 193.652344 C 218.269531 194.730469 216.90625 195.742188 215.492188 196.6875 C 214.078125 197.632812 212.621094 198.507812 211.117188 199.308594 C 209.617188 200.109375 208.082031 200.835938 206.511719 201.488281 C 204.941406 202.140625 203.339844 202.710938 201.710938 203.203125 C 200.085938 203.699219 198.4375 204.113281 196.765625 204.445312 C 195.097656 204.773438 193.417969 205.023438 191.726562 205.191406 C 190.03125 205.359375 188.335938 205.441406 186.632812 205.441406 C 184.933594 205.441406 183.234375 205.359375 181.542969 205.191406 C 179.851562 205.023438 178.167969 204.773438 176.5 204.445312 C 174.832031 204.113281 173.183594 203.699219 171.558594 203.203125 C 169.929688 202.710938 168.328125 202.140625 166.757812 201.488281 C 165.1875 200.835938 163.648438 200.109375 162.148438 199.308594 C 160.648438 198.507812 159.191406 197.632812 157.777344 196.6875 C 156.363281 195.742188 155 194.730469 153.683594 193.652344 C 152.367188 192.574219 151.109375 191.429688 149.90625 190.226562 C 148.703125 189.027344 147.5625 187.765625 146.484375 186.453125 C 145.40625 185.136719 144.390625 183.773438 143.445312 182.359375 C 142.503906 180.941406 141.628906 179.484375 140.828125 177.984375 C 140.023438 176.484375 139.296875 174.949219 138.648438 173.378906 C 137.996094 171.804688 137.425781 170.207031 136.929688 168.578125 C 136.4375 166.949219 136.023438 165.300781 135.691406 163.632812 C 135.359375 161.964844 135.109375 160.285156 134.945312 158.59375 C 134.777344 156.898438 134.695312 155.203125 134.695312 153.5 C 134.695312 151.800781 134.78125 150.105469 134.949219 148.414062 C 135.121094 146.71875 135.371094 145.039062 135.703125 143.375 C 136.039062 141.707031 136.453125 140.058594 136.949219 138.433594 C 137.441406 136.804688 138.015625 135.207031 138.667969 133.636719 C 139.320312 132.066406 140.046875 130.53125 140.851562 129.03125 C 141.652344 127.53125 142.527344 126.078125 143.472656 124.664062 C 144.417969 123.25 145.429688 121.886719 146.507812 120.570312 C 147.585938 119.257812 148.726562 118 149.929688 116.796875 C 151.132812 115.59375 152.390625 114.453125 153.703125 113.375 C 155.019531 112.296875 156.382812 111.285156 157.796875 110.339844 C 159.210938 109.394531 160.667969 108.519531 162.164062 107.714844 C 163.664062 106.914062 165.199219 106.1875 166.769531 105.535156 C 168.339844 104.882812 169.9375 104.308594 171.566406 103.816406 C 173.191406 103.320312 174.839844 102.90625 176.507812 102.570312 C 178.175781 102.238281 179.855469 101.988281 181.546875 101.816406 C 183.238281 101.648438 184.933594 101.5625 186.632812 101.558594 Z M 270.257812 281.449219 C 268.730469 282.816406 267.167969 284.144531 265.578125 285.433594 C 263.984375 286.722656 262.359375 287.972656 260.703125 289.183594 C 259.050781 290.394531 257.367188 291.5625 255.652344 292.691406 C 253.941406 293.820312 252.203125 294.90625 250.4375 295.945312 C 248.671875 296.988281 246.882812 297.988281 245.070312 298.945312 C 243.253906 299.898438 241.417969 300.808594 239.558594 301.671875 C 237.699219 302.539062 235.820312 303.355469 233.921875 304.128906 C 232.023438 304.902344 230.109375 305.628906 228.171875 306.308594 C 226.238281 306.984375 224.289062 307.617188 222.324219 308.199219 C 220.359375 308.78125 218.378906 309.316406 216.386719 309.804688 C 214.394531 310.289062 212.394531 310.726562 210.378906 311.113281 C 208.367188 311.503906 206.34375 311.839844 204.316406 312.128906 C 202.285156 312.417969 200.25 312.65625 198.210938 312.847656 C 196.167969 313.035156 194.121094 313.175781 192.074219 313.261719 C 190.027344 313.351562 187.976562 313.390625 185.925781 313.378906 C 183.878906 313.367188 181.828125 313.304688 179.78125 313.191406 C 177.734375 313.082031 175.691406 312.917969 173.652344 312.707031 C 171.613281 312.492188 169.582031 312.230469 167.554688 311.917969 C 165.527344 311.609375 163.511719 311.246094 161.5 310.835938 C 159.492188 310.425781 157.496094 309.964844 155.511719 309.457031 C 153.523438 308.945312 151.550781 308.390625 149.59375 307.785156 C 147.632812 307.179688 145.691406 306.523438 143.765625 305.824219 C 141.839844 305.125 139.929688 304.375 138.039062 303.582031 C 136.148438 302.785156 134.28125 301.945312 132.433594 301.0625 C 130.582031 300.175781 128.757812 299.242188 126.953125 298.269531 C 125.152344 297.292969 123.371094 296.273438 121.621094 295.210938 C 119.867188 294.148438 118.140625 293.042969 116.441406 291.894531 C 114.742188 290.746094 113.074219 289.558594 111.433594 288.332031 C 109.789062 287.101562 108.179688 285.832031 106.601562 284.523438 C 105.023438 283.214844 103.480469 281.871094 101.964844 280.484375 C 100.453125 279.101562 98.976562 277.679688 97.535156 276.226562 C 96.089844 274.769531 94.683594 273.277344 93.3125 271.753906 C 94.503906 269.734375 95.757812 267.753906 97.078125 265.816406 C 98.394531 263.878906 99.773438 261.984375 101.214844 260.136719 C 102.65625 258.289062 104.15625 256.488281 105.714844 254.738281 C 107.273438 252.988281 108.886719 251.289062 110.554688 249.644531 C 112.222656 247.996094 113.945312 246.40625 115.714844 244.871094 C 117.488281 243.335938 119.308594 241.863281 121.175781 240.445312 C 123.042969 239.027344 124.953125 237.675781 126.90625 236.382812 C 128.863281 235.089844 130.859375 233.863281 132.894531 232.699219 C 134.929688 231.535156 137 230.441406 139.105469 229.410156 C 141.210938 228.382812 143.347656 227.425781 145.515625 226.535156 C 147.6875 225.644531 149.878906 224.828125 152.101562 224.078125 C 154.324219 223.332031 156.566406 222.65625 158.832031 222.054688 C 161.097656 221.453125 163.378906 220.925781 165.679688 220.472656 C 167.980469 220.019531 170.292969 219.640625 172.617188 219.339844 C 174.941406 219.035156 177.269531 218.808594 179.609375 218.65625 C 181.949219 218.503906 184.289062 218.425781 186.632812 218.425781 C 188.976562 218.425781 191.320312 218.503906 193.660156 218.65625 C 195.996094 218.808594 198.328125 219.035156 200.652344 219.339844 C 202.976562 219.640625 205.289062 220.019531 207.589844 220.472656 C 209.886719 220.925781 212.171875 221.453125 214.4375 222.054688 C 216.703125 222.65625 218.945312 223.332031 221.167969 224.078125 C 223.386719 224.828125 225.582031 225.644531 227.75 226.535156 C 229.917969 227.425781 232.058594 228.382812 234.164062 229.410156 C 236.269531 230.441406 238.339844 231.535156 240.375 232.699219 C 242.410156 233.863281 244.40625 235.089844 246.359375 236.382812 C 248.316406 237.675781 250.226562 239.027344 252.09375 240.445312 C 253.960938 241.863281 255.78125 243.335938 257.554688 244.871094 C 259.324219 246.40625 261.042969 247.996094 262.714844 249.644531 C 264.382812 251.289062 265.996094 252.988281 267.554688 254.738281 C 269.109375 256.488281 270.609375 258.289062 272.050781 260.136719 C 273.492188 261.984375 274.875 263.878906 276.191406 265.816406 C 277.511719 267.753906 278.765625 269.734375 279.953125 271.753906 C 276.894531 275.15625 273.664062 278.390625 270.257812 281.449219 Z M 270.257812 281.449219 " fill-opacity="1" fill-rule="nonzero"/></g></svg>